<svg width="25" height="23" viewBox="0 0 25 23" fill="none" xmlns="http://www.w3.org/2000/svg">
<path fill-rule="evenodd" clip-rule="evenodd" d="M9.31226 17.9227C8.71069 17.9227 8.18726 18.4303 8.18726 19.1012C8.18726 19.7721 8.71069 20.2797 9.31226 20.2797C9.91382 20.2797 10.4373 19.7721 10.4373 19.1012C10.4373 18.4303 9.91382 17.9227 9.31226 17.9227ZM6.68726 19.1012C6.68726 17.6419 7.84275 16.4227 9.31226 16.4227C10.7818 16.4227 11.9373 17.6419 11.9373 19.1012C11.9373 20.5605 10.7818 21.7797 9.31226 21.7797C7.84275 21.7797 6.68726 20.5605 6.68726 19.1012Z" fill="#818181"/>
<path fill-rule="evenodd" clip-rule="evenodd" d="M16.8127 17.9227C16.2112 17.9227 15.6877 18.4303 15.6877 19.1012C15.6877 19.7721 16.2112 20.2797 16.8127 20.2797C17.4143 20.2797 17.9377 19.7721 17.9377 19.1012C17.9377 18.4303 17.4143 17.9227 16.8127 17.9227ZM14.1877 19.1012C14.1877 17.6419 15.3432 16.4227 16.8127 16.4227C18.2823 16.4227 19.4377 17.6419 19.4377 19.1012C19.4377 20.5605 18.2823 21.7797 16.8127 21.7797C15.3432 21.7797 14.1877 20.5605 14.1877 19.1012Z" fill="#818181"/>
<path fill-rule="evenodd" clip-rule="evenodd" d="M2.31226 3.03009C2.31226 2.61588 2.64804 2.28009 3.06226 2.28009H5.21582C5.85246 2.28009 6.38739 2.75858 6.45809 3.39129L7.48313 12.5656H19.2101C19.3185 12.5656 19.4145 12.4957 19.448 12.3926L21.2998 6.67853C21.3521 6.51704 21.2317 6.35146 21.062 6.35146H9.31226C8.89804 6.35146 8.56226 6.01567 8.56226 5.60146C8.56226 5.18724 8.89804 4.85146 9.31226 4.85146H21.062C22.2503 4.85146 23.0931 6.01052 22.7267 7.14097L20.8749 12.8551C20.641 13.5768 19.9688 14.0656 19.2101 14.0656H7.01634L5.98555 14.6714C5.91533 14.7127 5.88785 14.7568 5.87448 14.793C5.85869 14.8359 5.85462 14.8924 5.871 14.9526C5.88738 15.0127 5.91952 15.0594 5.95484 15.0883C5.98473 15.1128 6.03078 15.1369 6.11223 15.1369H18.6873C19.1015 15.1369 19.4373 15.4727 19.4373 15.8869C19.4373 16.3011 19.1015 16.6369 18.6873 16.6369H6.11223C4.32898 16.6369 3.68812 14.2818 5.2255 13.3782L6.01288 12.9154L4.99219 3.78009H3.06226C2.64804 3.78009 2.31226 3.4443 2.31226 3.03009Z" fill="#818181"/>
</svg>
