<svg width="25" height="25" viewBox="0 0 25 25" fill="none" xmlns="http://www.w3.org/2000/svg">
<path fill-rule="evenodd" clip-rule="evenodd" d="M2.18726 5.03009C2.18726 2.95902 3.86619 1.28009 5.93726 1.28009H8.50869C10.5798 1.28009 12.2587 2.95902 12.2587 5.03009V7.60152C12.2587 9.67259 10.5798 11.3515 8.50868 11.3515H5.93725C3.86619 11.3515 2.18726 9.67259 2.18726 7.60152V5.03009ZM5.93726 2.78009C4.69461 2.78009 3.68726 3.78745 3.68726 5.03009V7.60152C3.68726 8.84416 4.69461 9.85152 5.93725 9.85152H8.50868C9.75132 9.85152 10.7587 8.84416 10.7587 7.60152V5.03009C10.7587 3.78745 9.75133 2.78009 8.50869 2.78009H5.93726Z" fill="white"/>
<path fill-rule="evenodd" clip-rule="evenodd" d="M13.6157 5.03009C13.6157 2.95902 15.2947 1.28009 17.3657 1.28009H19.9372C22.0082 1.28009 23.6872 2.95902 23.6872 5.03009V7.60152C23.6872 9.67259 22.0082 11.3515 19.9372 11.3515H17.3657C15.2947 11.3515 13.6157 9.67259 13.6157 7.60152V5.03009ZM17.3657 2.78009C16.1231 2.78009 15.1157 3.78745 15.1157 5.03009V7.60152C15.1157 8.84416 16.1231 9.85152 17.3657 9.85152H19.9372C21.1798 9.85152 22.1872 8.84416 22.1872 7.60152V5.03009C22.1872 3.78745 21.1798 2.78009 19.9372 2.78009H17.3657Z" fill="white"/>
<path fill-rule="evenodd" clip-rule="evenodd" d="M13.6157 16.4586C13.6157 14.3876 15.2947 12.7086 17.3657 12.7086H19.9372C22.0082 12.7086 23.6872 14.3876 23.6872 16.4586V19.0301C23.6872 21.1011 22.0082 22.7801 19.9372 22.7801H17.3657C15.2947 22.7801 13.6157 21.1011 13.6157 19.0301V16.4586ZM17.3657 14.2086C16.1231 14.2086 15.1157 15.216 15.1157 16.4586V19.0301C15.1157 20.2727 16.1231 21.2801 17.3657 21.2801H19.9372C21.1798 21.2801 22.1872 20.2727 22.1872 19.0301V16.4586C22.1872 15.216 21.1798 14.2086 19.9372 14.2086H17.3657Z" fill="white"/>
<path fill-rule="evenodd" clip-rule="evenodd" d="M2.18726 16.4586C2.18726 14.3876 3.86619 12.7086 5.93726 12.7086H8.50869C10.5798 12.7086 12.2587 14.3876 12.2587 16.4586V19.0301C12.2587 21.1011 10.5798 22.7801 8.50868 22.7801H5.93725C3.86619 22.7801 2.18726 21.1011 2.18726 19.0301V16.4586ZM5.93726 14.2086C4.69461 14.2086 3.68726 15.216 3.68726 16.4586V19.0301C3.68726 20.2727 4.69461 21.2801 5.93725 21.2801H8.50868C9.75132 21.2801 10.7587 20.2727 10.7587 19.0301V16.4586C10.7587 15.216 9.75133 14.2086 8.50869 14.2086H5.93726Z" fill="white"/>
</svg>
