<svg width="259" height="141" viewBox="0 0 259 141" fill="none" xmlns="http://www.w3.org/2000/svg">
<path opacity="0.15" d="M100.763 78.6595C100.763 87.2505 99.6242 95.0652 97.347 102.104C95.1734 109.038 92.0165 114.99 87.8763 119.958C83.8396 124.927 78.923 128.756 73.1267 131.447C67.4339 134.139 61.0683 135.484 54.0299 135.484C46.9916 135.484 40.5742 134.139 34.7779 131.447C29.0851 128.756 24.2203 124.927 20.1836 119.958C16.1469 114.99 12.99 109.038 10.7128 102.104C8.53921 95.0652 7.4524 87.2505 7.4524 78.6595C7.4524 70.0686 8.53921 62.3057 10.7128 55.3708C12.99 48.3324 16.1469 42.3291 20.1836 37.3608C24.2203 32.3925 29.0851 28.5628 34.7779 25.8717C40.5742 23.1805 46.9916 21.835 54.0299 21.835C61.0683 21.835 67.4339 23.1805 73.1267 25.8717C78.923 28.5628 83.8396 32.3925 87.8763 37.3608C92.0165 42.3291 95.1734 48.3324 97.347 55.3708C99.6242 62.3057 100.763 70.0686 100.763 78.6595ZM29.1886 78.6595C29.1886 89.9417 31.3622 98.8431 35.7094 105.364C40.1602 111.781 46.267 114.99 54.0299 114.99C61.8964 114.99 68.0032 111.781 72.3504 105.364C76.8012 98.8431 79.0265 89.9417 79.0265 78.6595C79.0265 67.3774 76.8012 58.5277 72.3504 52.1104C68.0032 45.5895 61.8964 42.3291 54.0299 42.3291C46.267 42.3291 40.1602 45.5895 35.7094 52.1104C31.3622 58.5277 29.1886 67.3774 29.1886 78.6595ZM133.408 90.4592H166.789V48.2289L133.408 90.4592ZM166.789 133V108.78H114.156V86.733L163.373 24.3191H186.972V90.4592H201.877V108.78H186.972V133H166.789Z" fill="#669374"/>
</svg>
