<svg width="259" height="141" viewBox="0 0 259 141" fill="none" xmlns="http://www.w3.org/2000/svg">
<path opacity="0.15" d="M100.763 78.6595C100.763 87.2505 99.6242 95.0652 97.347 102.104C95.1734 109.038 92.0165 114.99 87.8763 119.958C83.8396 124.927 78.923 128.756 73.1267 131.447C67.4339 134.139 61.0683 135.484 54.0299 135.484C46.9916 135.484 40.5742 134.139 34.7779 131.447C29.0851 128.756 24.2203 124.927 20.1836 119.958C16.1469 114.99 12.99 109.038 10.7128 102.104C8.53921 95.0652 7.4524 87.2505 7.4524 78.6595C7.4524 70.0686 8.53921 62.3057 10.7128 55.3708C12.99 48.3324 16.1469 42.3291 20.1836 37.3608C24.2203 32.3925 29.0851 28.5628 34.7779 25.8717C40.5742 23.1805 46.9916 21.835 54.0299 21.835C61.0683 21.835 67.4339 23.1805 73.1267 25.8717C78.923 28.5628 83.8396 32.3925 87.8763 37.3608C92.0165 42.3291 95.1734 48.3324 97.347 55.3708C99.6242 62.3057 100.763 70.0686 100.763 78.6595ZM29.1886 78.6595C29.1886 89.9417 31.3622 98.8431 35.7094 105.364C40.1602 111.781 46.267 114.99 54.0299 114.99C61.8964 114.99 68.0032 111.781 72.3504 105.364C76.8012 98.8431 79.0265 89.9417 79.0265 78.6595C79.0265 67.3774 76.8012 58.5277 72.3504 52.1104C68.0032 45.5895 61.8964 42.3291 54.0299 42.3291C46.267 42.3291 40.1602 45.5895 35.7094 52.1104C31.3622 58.5277 29.1886 67.3774 29.1886 78.6595ZM155.455 135.484C144.69 135.484 135.634 133.104 128.285 128.342C120.936 123.581 115.295 116.491 111.362 107.072L129.682 98.5326C132.063 104.536 135.427 108.935 139.774 111.73C144.121 114.524 149.296 115.922 155.3 115.922C161.51 115.922 166.478 114.576 170.204 111.885C174.034 109.194 175.949 105.26 175.949 100.085C175.949 95.8415 174.552 92.5811 171.757 90.3039C168.962 88.0268 164.77 86.8882 159.181 86.8882H139.153V67.6362H158.871C163.321 67.6362 166.841 66.4976 169.428 64.2205C172.016 61.9434 173.31 58.9417 173.31 55.2155C173.31 50.8683 171.602 47.4526 168.186 44.9685C164.77 42.3808 160.371 41.087 154.989 41.087C150.124 41.087 145.725 42.2773 141.792 44.658C137.962 46.9351 134.857 50.6613 132.477 55.8366L114.777 46.8316C122.954 30.1672 136.72 21.835 156.076 21.835C161.872 21.835 167.099 22.6113 171.757 24.1638C176.518 25.6129 180.607 27.683 184.022 30.3742C187.438 33.0653 190.078 36.3775 191.941 40.3107C193.804 44.1404 194.735 48.4359 194.735 53.1972C194.735 58.9935 193.338 63.91 190.543 67.9467C187.852 71.9834 184.022 74.9333 179.054 76.7964C184.954 78.8666 189.457 82.127 192.562 86.5777C195.77 90.925 197.375 96.2555 197.375 102.569C197.375 107.641 196.34 112.195 194.27 116.232C192.199 120.269 189.301 123.736 185.575 126.634C181.849 129.429 177.398 131.603 172.223 133.155C167.151 134.708 161.562 135.484 155.455 135.484Z" fill="#669374"/>
</svg>
