<svg width="40" height="40" viewBox="0 0 40 40" fill="none" xmlns="http://www.w3.org/2000/svg">
<circle cx="20" cy="20" r="20" fill="white"/>
<path fill-rule="evenodd" clip-rule="evenodd" d="M14.4554 13.3703C12.425 14.1871 10.7737 16.3123 11.0254 19.4515C11.2143 21.8074 12.5132 23.7236 14.0476 25.1653C15.5827 26.6078 17.3996 27.6206 18.7421 28.1772C19.2012 28.3676 19.7172 28.3787 20.1859 28.2002C21.595 27.6636 23.4053 26.6558 24.925 25.2073C26.4432 23.7601 27.7082 21.8359 27.9343 19.4716C28.36 16.2839 26.658 14.1637 24.5699 13.3641C22.8264 12.6964 20.6993 12.9357 19.4654 14.3588C18.2252 12.9249 16.1715 12.6799 14.4554 13.3703ZM14.898 14.4706C16.4864 13.8317 18.1975 14.2595 18.9431 15.6901C19.0461 15.8877 19.2511 16.0109 19.474 16.009C19.6968 16.0071 19.8997 15.8806 19.9994 15.6813C20.6928 14.2947 22.4768 13.8326 24.1457 14.4717C25.7518 15.0867 27.1111 16.706 26.7573 19.3247C26.7562 19.3326 26.7553 19.3406 26.7546 19.3486C26.5667 21.3456 25.4949 23.0255 24.1066 24.3488C22.7172 25.6732 21.0478 26.6029 19.7638 27.0918C19.5824 27.1609 19.3799 27.1578 19.1964 27.0817C17.9548 26.5668 16.2683 25.6245 14.8597 24.3009C13.4503 22.9766 12.3648 21.3159 12.2077 19.3567C11.9975 16.7353 13.3486 15.094 14.898 14.4706Z" fill="#818181"/>
</svg>
