<svg width="17" height="16" viewBox="0 0 17 16" fill="none" xmlns="http://www.w3.org/2000/svg">
<path fill-rule="evenodd" clip-rule="evenodd" d="M3.45536 0.370307C1.42498 1.18713 -0.22628 3.31234 0.0254307 6.45151C0.214333 8.80737 1.51316 10.7236 3.04755 12.1653C4.58274 13.6078 6.39963 14.6206 7.74209 15.1772C8.2012 15.3676 8.71716 15.3787 9.18588 15.2002C10.595 14.6636 12.4053 13.6558 13.925 12.2073C15.4432 10.7601 16.7082 8.83586 16.9343 6.4716C17.36 3.28392 15.658 1.16372 13.5699 0.36407C11.8264 -0.303601 9.6993 -0.0643346 8.46545 1.35883C7.22517 -0.0751212 5.17147 -0.32008 3.45536 0.370307ZM3.89803 1.47064C5.48637 0.831655 7.19748 1.25949 7.94311 2.6901C8.0461 2.88769 8.25114 3.01087 8.47395 3.00901C8.69676 3.00715 8.89972 2.88055 8.99938 2.68127C9.69284 1.2947 11.4768 0.832556 13.1457 1.47167C14.7518 2.0867 16.1111 3.70602 15.7573 6.32471C15.7562 6.33265 15.7553 6.3406 15.7546 6.34857C15.5667 8.34564 14.4949 10.0255 13.1066 11.3488C11.7172 12.6732 10.0478 13.6029 8.76384 14.0918C8.58237 14.1609 8.37994 14.1578 8.19639 14.0817C6.9548 13.5668 5.26835 12.6245 3.8597 11.3009C2.45027 9.97663 1.36477 8.31591 1.20768 6.35671C0.997482 3.7353 2.34863 2.09397 3.89803 1.47064Z" fill="white"/>
</svg>
