<svg width="161" height="161" viewBox="0 0 161 161" fill="none" xmlns="http://www.w3.org/2000/svg">
<circle cx="80.5" cy="80.5" r="80.5" fill="#D9D9D9"/>
<path d="M47.079 66.7197H50.3112V93.6543H47.079V66.7197ZM70.7652 86.2665L79.6921 66.7197H84.0786V93.6543H81.0004V70.9908L71.8041 90.6915H69.6494L60.4531 70.9908V93.6543H57.3749V66.7197H61.8384L70.7652 86.2665ZM116.051 81.7646C116.051 83.6628 115.756 85.3815 115.166 86.9206C114.576 88.4598 113.73 89.7808 112.627 90.8839C111.549 91.9613 110.241 92.795 108.702 93.385C107.188 93.9749 105.508 94.2699 103.661 94.2699C101.583 94.2699 99.698 93.9108 98.005 93.1926C96.3119 92.4743 94.8626 91.4867 93.6569 90.2298C92.4769 88.9472 91.5535 87.4465 90.8865 85.7278C90.2452 84.0091 89.9246 82.1494 89.9246 80.1485C89.9246 78.0964 90.258 76.2109 90.925 74.4923C91.6176 72.7736 92.5667 71.2986 93.7724 70.0673C94.978 68.8103 96.4145 67.8356 98.0819 67.143C99.7493 66.4504 101.571 66.1041 103.546 66.1041C106.06 66.1041 108.33 66.6556 110.356 67.7586C112.383 68.8616 113.973 70.4264 115.128 72.4529L112.434 74.2614C111.536 72.6197 110.305 71.3627 108.74 70.4905C107.176 69.6184 105.418 69.1823 103.469 69.1823C101.955 69.1823 100.57 69.4516 99.3132 69.9903C98.0563 70.5034 96.9789 71.2473 96.0811 72.2221C95.1832 73.1712 94.4778 74.3255 93.9648 75.6851C93.4774 77.019 93.2337 78.5068 93.2337 80.1485C93.2337 81.7903 93.4774 83.2909 93.9648 84.6504C94.4778 85.9844 95.1961 87.1387 96.1195 88.1135C97.043 89.0882 98.146 89.845 99.4286 90.3837C100.711 90.9224 102.135 91.1917 103.7 91.1917C105.034 91.1917 106.239 90.9993 107.317 90.6145C108.42 90.2041 109.356 89.6398 110.126 88.9215C110.921 88.1776 111.549 87.2926 112.011 86.2665C112.473 85.2148 112.742 84.0476 112.819 82.765H101.006V79.8407H115.974C116 80.1742 116.013 80.4948 116.013 80.8026C116.038 81.1105 116.051 81.4311 116.051 81.7646Z" fill="black"/>
</svg>
