<svg width="12" height="18" viewBox="0 0 12 18" fill="none" xmlns="http://www.w3.org/2000/svg">
<path fill-rule="evenodd" clip-rule="evenodd" d="M6 1.24138C3.64741 1.24138 1.24138 3.25219 1.24138 6.32818C1.24138 8.6304 2.18137 10.8725 3.29211 12.7095C4.29223 14.3636 5.40354 15.6447 6 16.2831C6.59646 15.6447 7.70777 14.3636 8.70789 12.7095C9.81863 10.8725 10.7586 8.6304 10.7586 6.32818C10.7586 3.25219 8.35259 1.24138 6 1.24138ZM0 6.32818C0 2.55518 2.97328 0 6 0C9.02672 0 12 2.55518 12 6.32818C12 8.95135 10.937 11.4221 9.77019 13.3518C8.59904 15.2888 7.28947 16.7361 6.72258 17.3252C6.32508 17.7382 5.67492 17.7382 5.27742 17.3252C4.71053 16.7361 3.40096 15.2888 2.22981 13.3518C1.06305 11.4221 0 8.95135 0 6.32818Z" fill="#818181"/>
<path fill-rule="evenodd" clip-rule="evenodd" d="M6.0002 4.94734C5.20034 4.94734 4.55193 5.59576 4.55193 6.39562C4.55193 7.19548 5.20034 7.84389 6.0002 7.84389C6.80006 7.84389 7.44848 7.19548 7.44848 6.39562C7.44848 5.59576 6.80006 4.94734 6.0002 4.94734ZM3.31055 6.39562C3.31055 4.91016 4.51475 3.70596 6.0002 3.70596C7.48566 3.70596 8.68986 4.91016 8.68986 6.39562C8.68986 7.88107 7.48566 9.08527 6.0002 9.08527C4.51475 9.08527 3.31055 7.88107 3.31055 6.39562Z" fill="#818181"/>
</svg>
