<svg width="176" height="58" viewBox="0 0 176 58" fill="none" xmlns="http://www.w3.org/2000/svg">
<path d="M55.8806 29.1186C56.0295 40.1283 48.9809 50.7045 38.7781 54.8412C20.5397 62.4144 0.331895 48.8329 0.318558 29.1186C0.245204 9.33309 20.5286 -4.20843 38.7825 3.38701C48.9809 7.53037 56.0317 18.1089 55.8806 29.1186ZM55.8584 29.1186C55.9473 13.9988 43.226 1.37089 28.124 1.48203C13.0465 1.34644 0.347452 14.0477 0.440811 29.1186C0.391909 48.8329 20.5308 62.1944 38.7069 54.6678C48.8898 50.6023 55.9562 40.0905 55.8584 29.1186Z" fill="white"/>
<path d="M55.9363 29.1185C56.0007 38.759 50.9482 48.3372 42.6704 53.3875C26.0369 63.6169 4.58651 53.3386 0.629863 34.5867C-4.39152 10.4667 21.6223 -7.97395 42.6904 4.81625C50.9504 9.89766 56.0163 19.467 55.9363 29.1185ZM55.8029 29.1185C55.8607 18.0755 48.6698 8.10161 38.4981 4.07605C22.6937 -2.29015 4.91549 7.10577 1.35895 23.7926C-3.13785 45.6453 18.088 62.4166 38.5203 54.2121C48.6698 50.1332 55.8829 40.1771 55.8051 29.1185H55.8029Z" fill="#669374"/>
<path d="M27 8.49232C25.4828 8.56654 23.8254 8.83039 22.4237 9.22206C19.1089 10.1497 16.0292 11.9431 13.5638 14.3756C11.8445 16.0742 10.5706 17.847 9.51515 20.0115C8.5298 22.0275 7.94436 23.9446 7.62691 26.1957C7.48261 27.2099 7.43726 27.8778 7.43726 29.0198C7.43726 30.1866 7.48673 30.8998 7.62691 31.8852C8.27419 36.4079 10.2779 40.4194 13.4731 43.594C15.7241 45.8326 18.3421 47.4694 21.3105 48.4919C22.8978 49.0402 24.8726 49.4442 26.4847 49.5514C27.2721 49.605 28.7481 49.6009 29.4943 49.5514C31.5516 49.403 34.0706 48.8052 35.8641 48.0301C35.9795 47.9806 36.165 47.8982 36.2763 47.8487C36.7628 47.6426 37.9378 47.0241 38.5274 46.6737C40.3291 45.5853 42.0235 44.1794 43.4006 42.6127C45.7176 39.9824 47.3708 36.6676 48.0841 33.2251C48.3809 31.7945 48.5005 30.5947 48.5005 28.991C48.5005 27.8159 48.4592 27.214 48.3108 26.1751C47.9892 23.9199 47.3956 21.9904 46.3937 19.9702C45.8742 18.9148 45.6104 18.4572 45.0827 17.6615C44.2663 16.4411 43.5737 15.5959 42.5059 14.524C41.3433 13.3655 40.4734 12.6522 39.2324 11.84C36.4825 10.0384 33.5388 8.97057 30.2859 8.59127C29.7911 8.53355 28.1173 8.44285 27.804 8.45522C27.7256 8.45522 27.3628 8.47583 27 8.49232ZM26.4929 9.9518C26.497 9.97654 25.9611 10.3022 25.3055 10.6774C24.65 11.0567 23.4915 11.7205 22.7329 12.1575C21.9743 12.5945 21.2982 12.9821 21.2281 13.0233C21.1621 13.0645 20.251 13.5881 19.2079 14.1859C15.8808 16.0989 14.8088 16.7173 14.3265 16.9977C14.0709 17.1461 13.8524 17.2698 13.84 17.2698C13.8317 17.2698 13.7575 17.3151 13.6709 17.3687C13.304 17.5996 12.43 18.0944 12.3888 18.0944C12.3145 18.0944 12.3805 17.9954 12.867 17.344C13.7493 16.1649 14.5574 15.3115 15.5427 14.5034C18.3833 12.1699 21.5991 10.698 25.1654 10.1002C25.8621 9.98066 26.4146 9.8982 26.4558 9.90645C26.4764 9.91057 26.4929 9.93119 26.4929 9.9518ZM30.1127 9.99303C32.5205 10.2981 35.0848 11.1474 37.2369 12.3513C39.1417 13.415 40.9063 14.7837 42.0318 16.0659C42.6172 16.7338 43.6356 18.049 43.6356 18.1356C43.6356 18.1933 43.5449 18.1851 43.45 18.1191C43.4047 18.0902 43.1903 17.9624 42.9759 17.8387C42.7615 17.7109 42.1307 17.344 41.5742 17.0224C40.696 16.5112 36.5649 14.1158 34.7509 13.0645C34.4128 12.8666 33.881 12.5615 33.5759 12.3843C32.64 11.84 31.5846 11.2299 30.525 10.6238C29.9684 10.3064 29.4861 10.0178 29.4531 9.9889C29.4036 9.93943 29.4118 9.93119 29.5149 9.93119C29.585 9.93119 29.853 9.96004 30.1127 9.99303ZM28.0802 10.7228C28.4471 11.3041 28.7316 11.9802 29.0119 12.9202C29.383 14.1571 29.5809 15.2455 29.7705 17.0843C29.8777 18.1315 29.8654 20.0197 29.7458 21.1659C29.4696 23.8416 28.9542 25.8081 28.1874 27.1233C28.0761 27.3171 27.9606 27.4738 27.9276 27.4738C27.8947 27.4738 27.7875 27.3336 27.6885 27.1645C26.8681 25.7545 26.3733 23.8086 26.0641 20.7948C25.9982 20.1516 26.0023 17.8882 26.0682 17.2492C26.2868 15.1301 26.5382 13.8025 26.9835 12.475C27.268 11.6133 27.7916 10.5496 27.9276 10.5496C27.9483 10.5496 28.0183 10.6279 28.0802 10.7228ZM30.6734 12.207C31.0074 12.409 31.6547 12.7842 35.4105 14.961C35.7734 15.1713 36.3505 15.5052 36.6886 15.7031C37.0308 15.901 38.2182 16.5854 39.3272 17.2286C40.4404 17.8676 41.3721 18.4159 41.4051 18.4489C41.4546 18.4943 41.4463 18.5066 41.3433 18.5273C39.4468 18.9478 37.0555 19.962 34.6684 21.3637C33.4275 22.0894 31.6134 23.3757 30.9703 23.9817C30.8837 24.0642 30.8054 24.1178 30.7889 24.1054C30.7765 24.093 30.8054 23.8498 30.8507 23.5695C31.1434 21.8008 31.263 19.793 31.1847 17.9088C31.1146 16.2679 30.9868 15.1094 30.7311 13.819C30.624 13.2872 30.3807 12.3183 30.2983 12.1039C30.2488 11.9885 30.3683 12.0173 30.6734 12.207ZM25.5364 12.1039C25.5364 12.1204 25.4704 12.376 25.3962 12.6729C25.0004 14.1653 24.819 15.3568 24.6912 17.2863C24.5593 19.2735 24.6665 21.4709 24.9839 23.4499C25.0417 23.8209 25.0829 24.1302 25.0705 24.1384C25.0582 24.1508 24.8685 24.0106 24.65 23.8251C22.4113 21.9409 19.0677 20.0527 16.2601 19.0838C15.6746 18.8818 14.8542 18.6427 14.479 18.5685C14.3471 18.5437 14.3265 18.4778 14.4378 18.4365C14.4749 18.4242 14.7882 18.251 15.1263 18.0531C15.4685 17.8552 16.19 17.4388 16.7342 17.1255C17.2784 16.8122 18.272 16.2391 18.9399 15.8557C20.9848 14.6807 21.7558 14.2354 23.0421 13.4974C23.7224 13.1058 24.5469 12.6275 24.8768 12.4337C25.4787 12.0792 25.5364 12.0503 25.5364 12.1039ZM43.9654 19.8177C43.9654 19.9084 43.7098 20.3454 43.417 20.7659C42.1101 22.6171 39.2365 24.9094 36.5361 26.2493C34.5819 27.2223 32.8132 27.8572 31.2053 28.1581C30.6322 28.2695 29.2882 28.3189 29.2882 28.2324C29.2882 28.1581 29.7087 27.449 29.9231 27.1645C30.8796 25.8782 32.5369 24.394 34.4664 23.0953C35.4064 22.4645 35.8599 22.2048 36.936 21.6771C39.4839 20.432 41.7473 19.76 43.4418 19.7476C43.9159 19.7435 43.9654 19.7517 43.9654 19.8177ZM13.7039 19.9084C15.9632 20.3001 19.0842 21.5905 21.2487 23.0335C22.8401 24.1013 24.0811 25.1279 25.1736 26.2864C25.6683 26.8141 26.0147 27.2676 26.3568 27.8489C26.5671 28.1994 26.6083 28.2942 26.563 28.3272C26.497 28.3684 25.5075 28.3354 25.0829 28.2777C23.4255 28.0427 21.2693 27.2882 19.0842 26.1833C16.9238 25.0908 14.3017 23.0623 12.9247 21.4132C12.397 20.7824 11.8528 19.9208 11.9146 19.8177C11.96 19.7476 13.102 19.8053 13.7039 19.9084ZM10.7231 25.5443C10.7066 28.0345 10.6943 31.646 10.6943 33.5755L10.6902 37.0799L10.6077 36.9232C10.451 36.6264 10.0635 35.6369 9.82436 34.9196C9.11112 32.8004 8.68647 30.1 8.80191 28.4302C8.95857 26.0967 9.41208 24.0766 10.2408 22.0152C10.5665 21.1947 10.6489 21.0216 10.7025 21.0216C10.7355 21.0216 10.7396 22.2502 10.7231 25.5443ZM45.4207 21.3473C46.5586 23.8333 47.2842 27.3666 47.1358 29.6795C46.9792 32.1119 46.3937 34.5444 45.4455 36.6635C45.2929 37.0057 45.2228 37.1294 45.2063 37.0758C45.1651 36.948 45.1981 21.0216 45.2393 21.0216C45.2558 21.0216 45.3383 21.1659 45.4207 21.3473ZM43.8829 28.9992C43.8829 32.5242 43.8706 35.4102 43.8541 35.4102C43.8376 35.4102 43.5737 35.1628 43.2686 34.8618C41.3927 33.0272 38.6552 31.2049 35.8311 29.9103C35.2456 29.6465 34.1861 29.2136 33.8521 29.1023C33.7655 29.0775 33.7037 29.0322 33.7078 29.0116C33.7161 28.9868 33.8727 28.9167 34.05 28.8549C34.7674 28.6075 35.8723 28.1252 36.8329 27.6387C39.3437 26.3688 41.7349 24.6991 43.3016 23.1201C43.5861 22.8356 43.8335 22.5965 43.8541 22.5923C43.8706 22.5923 43.8829 25.4742 43.8829 28.9992ZM12.3929 22.9964C12.6938 23.3138 13.4731 24.0312 13.9224 24.394C15.7365 25.87 18.0164 27.2676 20.1974 28.2488C20.6303 28.4426 21.863 28.9332 22.1268 29.0198C22.2794 29.0652 22.3247 29.1353 22.2299 29.16C22.0444 29.2095 21.2198 29.5228 20.7457 29.7289C18.3833 30.7267 15.7324 32.3304 13.8688 33.8806C13.2545 34.396 12.4176 35.1669 12.2774 35.3525C12.2156 35.4308 12.1331 35.5132 12.0878 35.538C12.0136 35.5751 12.0136 35.3937 12.0136 29.1435C12.0136 23.788 12.0259 22.7119 12.0713 22.7119C12.1002 22.7119 12.2445 22.8397 12.3929 22.9964ZM30.5745 29.8031C31.6547 29.9062 33.0729 30.2938 34.6272 30.9163C35.4724 31.2544 35.7362 31.3739 36.7463 31.881C37.6327 32.3263 37.8265 32.4417 38.7706 33.0725C40.964 34.5403 42.7203 36.1564 43.6191 37.5334C43.8499 37.888 44.0355 38.2425 44.0025 38.2714C43.9077 38.3704 42.8811 38.3168 42.073 38.1683C39.8797 37.7725 36.903 36.5357 34.788 35.1422C32.8956 33.893 31.3331 32.5696 30.3395 31.3698C29.8612 30.7885 29.2923 29.8938 29.35 29.8031C29.383 29.7495 30.0055 29.7495 30.5745 29.8031ZM26.6083 29.9227C26.6083 30.034 26.2332 30.6524 25.8745 31.1389C25.4581 31.6996 24.1099 33.0354 23.3307 33.6621C21.2775 35.3112 19.5748 36.3089 17.1877 37.2654C15.5963 37.9004 14.1203 38.292 12.9783 38.3786C12.4918 38.4157 11.9311 38.3992 11.9311 38.3456C11.9311 38.3332 11.9971 38.2013 12.0837 38.0529C12.9247 36.5357 14.8501 34.701 17.3114 33.0808C18.206 32.4912 18.4369 32.3593 19.4264 31.8646C21.9825 30.5906 24.3944 29.865 26.126 29.8485C26.5754 29.8444 26.6083 29.8485 26.6083 29.9227ZM28.2946 31.0441C28.9831 32.2439 29.4943 34.095 29.7623 36.3584C29.9066 37.5664 29.9602 38.6672 29.9272 39.6361C29.8159 42.9054 29.1191 45.9398 28.142 47.4158C28.0884 47.5024 28.0266 47.5725 28.0142 47.5725C27.9276 47.5725 27.5525 46.9046 27.3175 46.3356C26.8763 45.2802 26.5589 43.9897 26.3032 42.2334C25.7961 38.7744 26.229 34.4496 27.3463 31.7862C27.5731 31.2461 27.9441 30.6112 28.0225 30.6401C28.0472 30.6483 28.1709 30.8297 28.2946 31.0441ZM31.3083 34.3217C32.0793 34.9732 33.6171 36.0492 34.6478 36.6553C36.8865 37.9746 39.1747 38.9682 41.1 39.4588C41.3062 39.5124 41.4793 39.5742 41.4876 39.5948C41.4958 39.6154 41.3474 39.7268 41.1577 39.834C40.7372 40.0772 40.898 39.9865 38.5851 41.314C37.542 41.916 35.8929 42.8683 34.9158 43.429C33.9428 43.9897 33.0234 44.5175 32.875 44.604C32.7266 44.6865 32.1164 45.0369 31.5227 45.3833C30.9249 45.7296 30.4261 46.0017 30.4178 45.9934C30.4054 45.9811 30.4467 45.8038 30.5044 45.5894C30.9167 44.1258 31.1558 42.4808 31.2712 40.3575C31.3578 38.7208 31.2383 36.4491 30.9785 34.8289C30.9084 34.4083 30.8548 34.0414 30.8548 34.0125C30.8548 33.9425 30.9002 33.9754 31.3083 34.3217ZM25.1489 34.161C25.0747 34.5155 24.8644 36.1152 24.8108 36.7501C24.683 38.2178 24.7283 40.9347 24.9015 42.3571C25.0705 43.7341 25.3921 45.3585 25.6065 45.8862C25.6436 45.9811 25.656 46.0676 25.6354 46.0883C25.6147 46.1089 25.4663 46.0429 25.289 45.9357C25.12 45.8326 24.6376 45.5482 24.2171 45.3049C23.7966 45.0617 22.3412 44.2165 20.9807 43.429C19.6202 42.6375 18.0329 41.7222 17.4557 41.3883C15.151 40.0566 14.5491 39.702 14.5367 39.6649C14.5285 39.6402 14.6687 39.5907 14.846 39.5495C15.551 39.3969 17.0558 38.8651 18.2184 38.3539C18.6967 38.1477 20.2345 37.3726 20.6509 37.1335C21.6239 36.5687 21.7723 36.4739 22.6504 35.8925C23.3101 35.4555 24.3202 34.701 24.7531 34.3259C25.0994 34.0249 25.1901 33.9878 25.1489 34.161ZM12.7392 40.1597C12.8959 40.2545 13.1927 40.4276 13.3947 40.5431C13.6009 40.6626 13.9348 40.8564 14.1368 40.976C14.6027 41.2481 16.4951 42.3489 17.2289 42.7694C17.4351 42.8848 17.9628 43.194 18.4039 43.4497C18.8451 43.7053 19.5501 44.1134 19.9706 44.3567C20.3911 44.5999 21.3188 45.1359 22.032 45.5523C22.7453 45.9687 23.5162 46.414 23.743 46.5418C23.9697 46.6696 24.4975 46.9747 24.918 47.222C26.027 47.8693 26.2084 47.9724 26.3074 48.0012C26.3527 48.0177 26.4063 48.059 26.4187 48.0919C26.4517 48.1744 26.2455 48.1538 25.2107 47.9806C22.3041 47.4859 19.7191 46.4634 17.2496 44.8308C16.2024 44.1382 15.0356 43.1982 14.3677 42.5055C13.8482 41.9696 12.9907 40.9265 12.5702 40.3246C12.5042 40.2256 12.4217 40.1102 12.3888 40.0648C12.2939 39.9329 12.4259 39.9659 12.7392 40.1597ZM43.5531 40.0277C43.5531 40.1349 42.4564 41.5408 41.8669 42.1922C41.4381 42.6622 40.8815 43.1693 40.1518 43.7547C37.373 45.9811 34.2479 47.3828 30.7105 47.9848C29.7664 48.1455 29.4366 48.1785 29.4613 48.1084C29.4696 48.0755 29.5067 48.0383 29.5397 48.0219C29.5726 48.0012 30.4054 47.5271 31.3908 46.9623C32.3762 46.3975 33.3904 45.8162 33.6377 45.676C34.116 45.4039 34.4747 45.1936 35.3899 44.6659C35.695 44.4886 36.5113 44.0227 37.204 43.6228C37.8966 43.227 38.7047 42.7611 38.9974 42.5921C39.657 42.2128 41.166 41.3429 42.3822 40.6461C42.8811 40.3575 43.3387 40.0937 43.3923 40.0566C43.5036 39.9782 43.5531 39.97 43.5531 40.0277Z" fill="#669374"/>
<path d="M63.1873 16.0722V19.8672C64.6123 19.8372 65.1673 18.9972 65.7073 18.0372C66.0973 17.3622 66.3973 16.5822 66.8773 15.9072C67.1023 15.5922 67.3873 15.4572 67.7923 15.5322C68.1973 15.6072 68.3023 15.8622 68.0023 16.3272C67.5823 16.9422 67.1923 17.7072 66.8173 18.4422C66.4423 19.1772 65.7373 19.9122 64.9423 20.2422C66.2923 20.5272 67.0873 21.7422 67.4773 22.9572C67.8823 24.2472 68.0623 24.8322 68.4523 25.5672C68.6323 25.8972 68.4673 26.0922 68.1073 26.1672C67.7773 26.2422 67.4773 26.1222 67.3273 25.9422C66.8923 25.3722 66.6523 24.4122 66.3673 23.5722C65.7973 21.8622 65.1373 20.7672 63.1873 20.8272V25.6422C63.1873 26.0772 62.8573 26.1972 62.5423 26.1972C62.2273 26.1972 61.9123 26.0772 61.9123 25.6422V16.0722C61.9123 15.6222 62.2273 15.5022 62.5423 15.5022C62.8573 15.5022 63.1873 15.6222 63.1873 16.0722ZM79.1089 20.8122C79.1089 18.8322 78.6739 16.3722 76.1539 16.3722C73.6339 16.3722 73.1989 18.8322 73.1989 20.8122C73.1989 22.7922 73.6339 25.2372 76.1539 25.2372C78.6739 25.2372 79.1089 22.7922 79.1089 20.8122ZM71.8339 20.8122C71.8339 17.6172 73.1539 15.3822 76.1539 15.3822C79.1539 15.3822 80.4739 17.6172 80.4739 20.8122C80.4739 24.0072 79.1239 26.2272 76.1539 26.2272C73.1839 26.2272 71.8339 24.0072 71.8339 20.8122ZM91.9562 20.8122C91.9562 18.8322 91.5212 16.3722 89.0012 16.3722C86.4812 16.3722 86.0462 18.8322 86.0462 20.8122C86.0462 22.7922 86.4812 25.2372 89.0012 25.2372C91.5212 25.2372 91.9562 22.7922 91.9562 20.8122ZM84.6812 20.8122C84.6812 17.6172 86.0012 15.3822 89.0012 15.3822C92.0012 15.3822 93.3212 17.6172 93.3212 20.8122C93.3212 24.0072 91.9712 26.2272 89.0012 26.2272C86.0312 26.2272 84.6812 24.0072 84.6812 20.8122ZM105.043 16.9422V25.6272C105.043 26.0772 104.713 26.1972 104.398 26.1972C104.083 26.1972 103.753 26.0772 103.753 25.6272V17.1372C103.753 16.8372 103.648 16.7172 103.348 16.7172H99.6585C99.3585 16.7172 99.2535 16.8372 99.2535 17.1372V25.6272C99.2535 26.0772 98.9235 26.1972 98.6085 26.1972C98.2935 26.1972 97.9785 26.0772 97.9785 25.6272V16.9422C97.9785 16.1922 98.1735 15.5622 99.2085 15.5622H103.798C104.833 15.5622 105.043 16.1922 105.043 16.9422ZM110.137 24.6822V16.9422C110.137 16.1922 110.347 15.5622 111.367 15.5622H115.882C116.287 15.5622 116.392 15.8472 116.392 16.1472C116.392 16.4322 116.287 16.7172 115.882 16.7172H111.817C111.517 16.7172 111.412 16.8372 111.412 17.1372V20.0472H114.952C115.342 20.0472 115.432 20.3172 115.432 20.6022C115.432 20.8872 115.342 21.1572 114.952 21.1572H111.412V24.4872C111.412 24.7872 111.517 24.9072 111.817 24.9072H115.882C116.287 24.9072 116.392 25.1922 116.392 25.4922C116.392 25.7772 116.287 26.0622 115.882 26.0622H111.367C110.347 26.0622 110.137 25.4322 110.137 24.6822ZM122.311 25.6422C122.311 26.0772 121.981 26.1972 121.666 26.1972C121.351 26.1972 121.036 26.0772 121.036 25.6422V16.9422C121.036 16.1922 121.231 15.5622 122.266 15.5622H124.636C126.511 15.5622 127.861 16.7472 127.861 18.6972C127.861 20.5272 126.601 21.8022 124.771 21.8022H122.311V25.6422ZM122.311 20.7072H124.651C125.851 20.7072 126.571 19.8822 126.571 18.6972C126.571 17.5722 125.896 16.6572 124.741 16.6572H122.716C122.416 16.6572 122.311 16.7772 122.311 17.0922V20.7072ZM135.415 16.0722L138.61 25.6422C138.745 26.0772 138.475 26.1972 138.145 26.1972C137.695 26.1972 137.425 26.0922 137.29 25.6422L136.435 23.0022H132.775L131.92 25.6422C131.785 26.0922 131.515 26.1972 131.05 26.1972C130.735 26.1972 130.465 26.0772 130.6 25.6422L133.795 16.0722C133.93 15.6822 134.2 15.5022 134.605 15.5022C135.01 15.5022 135.28 15.6822 135.415 16.0722ZM133.09 22.0122H136.12L135.1 18.8172C134.89 18.1722 134.755 17.5272 134.605 16.8822C134.455 17.5272 134.32 18.1722 134.11 18.8172L133.09 22.0122ZM143.01 24.6822V16.0722C143.01 15.6222 143.325 15.5022 143.64 15.5022C143.955 15.5022 144.285 15.6222 144.285 16.0722V24.4872C144.285 24.7872 144.39 24.9072 144.69 24.9072H148.86V16.0722C148.86 15.6222 149.19 15.5022 149.505 15.5022C149.82 15.5022 150.135 15.6222 150.135 16.0722V24.9072H150.36C151.125 24.9072 151.395 25.2672 151.395 25.9272V27.7572C151.395 28.2072 151.155 28.3272 150.825 28.3272C150.51 28.3272 150.255 28.2072 150.255 27.7572V26.3172C150.255 26.0322 150.045 26.0622 149.955 26.0622H144.24C143.205 26.0622 143.01 25.4322 143.01 24.6822ZM157.015 16.0722V23.9172C157.21 23.4972 157.39 23.1822 157.69 22.7022L161.935 15.7872C162.055 15.5772 162.28 15.5022 162.505 15.5022C162.835 15.5022 163.15 15.6222 163.15 16.0722V25.6422C163.15 26.0772 162.835 26.1972 162.505 26.1972C162.19 26.1972 161.875 26.0772 161.875 25.6422V17.7672C161.74 18.1122 161.515 18.5172 161.305 18.8622L156.94 25.9422C156.835 26.1372 156.61 26.1972 156.385 26.1972C156.055 26.1972 155.74 26.0772 155.74 25.6422V16.0722C155.74 15.6222 156.055 15.5022 156.385 15.5022C156.7 15.5022 157.015 15.6222 157.015 16.0722ZM173.501 25.6422V21.5322H172.511C171.296 21.5322 170.636 22.0422 170.006 23.4072C169.616 24.2772 169.346 25.1922 168.716 25.9422C168.566 26.1222 168.191 26.2422 167.861 26.1672C167.501 26.0922 167.411 25.8972 167.606 25.5672C168.131 24.6972 168.461 23.8272 168.896 22.9272C169.226 22.2072 169.616 21.6072 170.336 21.2622C168.941 20.9772 167.951 20.1522 167.951 18.5622C167.951 16.6122 169.301 15.5622 171.176 15.5622H173.546C174.581 15.5622 174.776 16.1922 174.776 16.9422V25.6422C174.776 26.0772 174.461 26.1972 174.146 26.1972C173.816 26.1972 173.501 26.0772 173.501 25.6422ZM173.501 20.4522V17.0922C173.501 16.7772 173.396 16.6572 173.096 16.6572H171.071C169.916 16.6572 169.241 17.4372 169.241 18.5622C169.241 19.9572 170.366 20.4522 171.596 20.4522H173.501Z" fill="#669374"/>
<path d="M62.4823 33.008L64.8223 38.678L65.2123 39.683L65.5573 38.663L67.6273 33.008C67.7623 32.648 67.8373 32.438 68.4673 32.438C68.7973 32.438 69.0673 32.558 68.8873 33.008L65.8573 40.973C65.1973 42.623 64.7173 43.193 63.2473 43.073C63.0823 43.073 62.6773 43.028 62.6923 42.488C62.7073 42.158 62.7673 41.933 63.2023 41.978C64.2373 42.068 64.4173 41.528 64.5973 41.078L61.1473 33.008C60.9373 32.558 61.3423 32.438 61.6873 32.438C62.3023 32.438 62.3023 32.648 62.4823 33.008ZM74.4964 42.578C74.4964 43.013 74.1664 43.133 73.8514 43.133C73.5364 43.133 73.2214 43.013 73.2214 42.578V33.878C73.2214 33.128 73.4164 32.498 74.4514 32.498H76.8214C78.6964 32.498 80.0464 33.683 80.0464 35.633C80.0464 37.463 78.7864 38.738 76.9564 38.738H74.4964V42.578ZM74.4964 37.643H76.8364C78.0364 37.643 78.7564 36.818 78.7564 35.633C78.7564 34.508 78.0814 33.593 76.9264 33.593H74.9014C74.6014 33.593 74.4964 33.713 74.4964 34.028V37.643ZM87.6006 33.008L90.7956 42.578C90.9306 43.013 90.6606 43.133 90.3306 43.133C89.8806 43.133 89.6106 43.028 89.4756 42.578L88.6206 39.938H84.9606L84.1056 42.578C83.9706 43.028 83.7006 43.133 83.2356 43.133C82.9206 43.133 82.6506 43.013 82.7856 42.578L85.9806 33.008C86.1156 32.618 86.3856 32.438 86.7906 32.438C87.1956 32.438 87.4656 32.618 87.6006 33.008ZM85.2756 38.948H88.3056L87.2856 35.753C87.0756 35.108 86.9406 34.463 86.7906 33.818C86.6406 34.463 86.5056 35.108 86.2956 35.753L85.2756 38.948Z" fill="#669374"/>
</svg>
