<svg width="270" height="88" viewBox="0 0 270 88" fill="none" xmlns="http://www.w3.org/2000/svg">
<path d="M85.7562 43.712C85.9847 60.608 75.1677 76.8387 59.51 83.187C31.5207 94.8092 0.509053 73.9664 0.488586 43.712C0.376014 13.3485 31.5037 -7.43283 59.5169 4.22341C75.1677 10.582 85.9882 26.8161 85.7562 43.712ZM85.7221 43.712C85.8585 20.5087 66.336 1.12941 43.1599 1.29997C20.0214 1.09188 0.532928 20.5838 0.6762 43.712C0.601153 73.9664 31.5071 94.4715 59.4009 82.921C75.0278 76.6818 85.8722 60.55 85.7221 43.712Z" fill="white"/>
<path d="M85.8419 43.7119C85.9408 58.5065 78.1871 73.2056 65.4836 80.956C39.9572 96.6546 7.03864 80.8809 0.966612 52.1036C-6.7394 15.0881 33.1824 -13.2116 65.5143 6.41674C78.1905 14.2149 85.9647 28.9003 85.8419 43.7119ZM85.6373 43.7119C85.726 26.7649 74.6905 11.4586 59.0807 5.2808C34.8267 -4.48902 7.5435 9.93033 2.0855 35.5386C-4.81546 69.0746 27.7586 94.8125 59.1148 82.2215C74.6906 75.9619 85.76 60.6829 85.6407 43.7119H85.6373Z" fill="#454545"/>
<path d="M41.4358 12.0582C39.1075 12.1721 36.564 12.577 34.4128 13.1781C29.3259 14.6017 24.5996 17.3539 20.816 21.0869C18.1777 23.6936 16.2226 26.4142 14.6029 29.7359C13.0907 32.8298 12.1923 35.7719 11.7051 39.2265C11.4837 40.7829 11.4141 41.8079 11.4141 43.5605C11.4141 45.351 11.49 46.4456 11.7051 47.9578C12.6984 54.8985 15.7734 61.0547 20.6768 65.9265C24.1314 69.3621 28.1491 71.8739 32.7045 73.443C35.1404 74.2845 38.1711 74.9046 40.6449 75.0691C41.8534 75.1513 44.1185 75.145 45.2637 75.0691C48.4209 74.8413 52.2867 73.9239 55.0389 72.7344C55.2161 72.6585 55.5008 72.5319 55.6716 72.456C56.4182 72.1397 58.2214 71.1906 59.1262 70.6528C61.8911 68.9825 64.4915 66.825 66.6047 64.4207C70.1605 60.384 72.6977 55.2971 73.7922 50.014C74.2478 47.8186 74.4313 45.9774 74.4313 43.5162C74.4313 41.713 74.368 40.7892 74.1402 39.1948C73.6467 35.7339 72.7356 32.7729 71.1982 29.6727C70.4009 28.0529 69.996 27.3506 69.1862 26.1295C67.9334 24.2567 66.8705 22.9597 65.2318 21.3146C63.4475 19.5368 62.1125 18.4422 60.2081 17.1958C55.988 14.4308 51.4705 12.7921 46.4785 12.2101C45.7192 12.1215 43.1504 11.9823 42.6696 12.0013C42.5494 12.0013 41.9926 12.0329 41.4358 12.0582ZM40.6576 14.298C40.6639 14.3359 39.8414 14.8358 38.8354 15.4115C37.8294 15.9936 36.0515 17.0123 34.8873 17.6829C33.7232 18.3536 32.6855 18.9483 32.578 19.0116C32.4767 19.0749 31.0785 19.8784 29.4777 20.7958C24.3718 23.7316 22.7268 24.6806 21.9865 25.1109C21.5943 25.3386 21.2589 25.5285 21.2399 25.5285C21.2273 25.5285 21.1134 25.598 20.9805 25.6803C20.4174 26.0346 19.0761 26.7939 19.0128 26.7939C18.8989 26.7939 19.0002 26.642 19.7468 25.6423C21.1007 23.8328 22.3408 22.5231 23.853 21.283C28.2123 17.7019 33.1474 15.4432 38.6203 14.5257C39.6896 14.3423 40.5374 14.2157 40.6006 14.2284C40.6323 14.2347 40.6576 14.2663 40.6576 14.298ZM46.2127 14.3612C49.9077 14.8294 53.8431 16.1328 57.1458 17.9803C60.0689 19.6127 62.7769 21.7132 64.5042 23.681C65.4026 24.7059 66.9654 26.7243 66.9654 26.8571C66.9654 26.9457 66.8262 26.933 66.6807 26.8318C66.6111 26.7875 66.2821 26.5914 65.953 26.4016C65.624 26.2054 64.656 25.6423 63.8019 25.1488C62.4542 24.3643 56.1145 20.6883 53.3306 19.0749C52.8118 18.7712 51.9956 18.303 51.5274 18.0309C50.0912 17.1958 48.4715 16.2594 46.8454 15.3293C45.9913 14.8421 45.251 14.3992 45.2004 14.3549C45.1245 14.279 45.1371 14.2663 45.2953 14.2663C45.4029 14.2663 45.8141 14.3106 46.2127 14.3612ZM43.0935 15.4811C43.6566 16.3732 44.0932 17.4109 44.5234 18.8534C45.0928 20.7515 45.3965 22.4219 45.6876 25.2437C45.8521 26.8508 45.8331 29.7486 45.6496 31.5075C45.2257 35.6137 44.4348 38.6317 43.258 40.65C43.0872 40.9474 42.91 41.1878 42.8594 41.1878C42.8088 41.1878 42.6443 40.9727 42.4924 40.7133C41.2333 38.5495 40.4741 35.5631 39.9996 30.9381C39.8983 29.951 39.9047 26.4775 40.0059 25.4968C40.3412 22.2447 40.7272 20.2074 41.4105 18.1701C41.8471 16.8478 42.6506 15.2154 42.8594 15.2154C42.891 15.2154 42.9986 15.3356 43.0935 15.4811ZM47.0732 17.7589C47.5857 18.0689 48.579 18.6446 54.3429 21.9853C54.8997 22.308 55.7855 22.8205 56.3043 23.1242C56.8295 23.4279 58.6517 24.4782 60.3536 25.4652C62.0619 26.4459 63.4918 27.2874 63.5424 27.338C63.6184 27.4076 63.6057 27.4266 63.4475 27.4582C60.5371 28.1035 56.8674 29.66 53.2041 31.8112C51.2996 32.9247 48.5158 34.8988 47.5287 35.8288C47.3959 35.9554 47.2757 36.0376 47.2504 36.0187C47.2314 35.9997 47.2757 35.6264 47.3453 35.1961C47.7945 32.4819 47.978 29.4006 47.8577 26.5091C47.7502 23.991 47.5541 22.2131 47.1618 20.2327C46.9973 19.4165 46.624 17.9297 46.4974 17.6007C46.4215 17.4235 46.605 17.4678 47.0732 17.7589ZM39.1897 17.6007C39.1897 17.626 39.0885 18.0183 38.9746 18.4738C38.3672 20.7642 38.0888 22.5927 37.8927 25.5538C37.6902 28.6034 37.8547 31.9757 38.3419 35.0127C38.4305 35.5821 38.4937 36.0566 38.4748 36.0693C38.4558 36.0883 38.1647 35.8731 37.8294 35.5884C34.3938 32.697 29.2626 29.7992 24.9539 28.3123C24.0555 28.0023 22.7964 27.6353 22.2206 27.5215C22.0182 27.4835 21.9865 27.3823 22.1574 27.319C22.2143 27.3 22.6952 27.0343 23.214 26.7306C23.7391 26.4269 24.8463 25.7879 25.6815 25.307C26.5167 24.8261 28.0415 23.9467 29.0665 23.3583C32.2047 21.5551 33.3878 20.8718 35.3619 19.7392C36.4058 19.1381 37.6712 18.4042 38.1774 18.1068C39.1011 17.5627 39.1897 17.5184 39.1897 17.6007ZM67.4715 29.4386C67.4715 29.5777 67.0793 30.2484 66.63 30.8938C64.6244 33.7346 60.2144 37.2524 56.0702 39.3087C53.0712 40.8019 50.3569 41.7763 47.8894 42.2381C47.0099 42.409 44.9473 42.4849 44.9473 42.352C44.9473 42.2381 45.5927 41.1499 45.9217 40.7133C47.3895 38.7393 49.933 36.4616 52.8941 34.4685C54.3366 33.5005 55.0326 33.1019 56.684 32.292C60.5941 30.3813 64.0676 29.35 66.668 29.331C67.3956 29.3247 67.4715 29.3373 67.4715 29.4386ZM21.0311 29.5777C24.4984 30.1788 29.2879 32.1592 32.6096 34.3736C35.0518 36.0123 36.9563 37.5878 38.6329 39.3657C39.3922 40.1755 39.9237 40.8715 40.4488 41.7636C40.7715 42.3014 40.8347 42.4469 40.7651 42.4975C40.6639 42.5608 39.1454 42.5102 38.4937 42.4216C35.9503 42.061 32.6412 40.9031 29.2879 39.2075C25.9726 37.5308 21.9486 34.4179 19.8353 31.8871C19.0255 30.9191 18.1903 29.5967 18.2852 29.4386C18.3548 29.331 20.1074 29.4196 21.0311 29.5777ZM16.4567 38.2268C16.4314 42.0483 16.4124 47.5908 16.4124 50.5518L16.4061 55.9298L16.2795 55.6894C16.0391 55.2338 15.4444 53.7154 15.0774 52.6145C13.9828 49.3624 13.3312 45.2182 13.5083 42.6557C13.7487 39.0746 14.4447 35.9744 15.7164 32.8109C16.2163 31.5518 16.3428 31.286 16.4251 31.286C16.4757 31.286 16.482 33.1715 16.4567 38.2268ZM69.705 31.7859C71.4512 35.6011 72.5648 41.0233 72.337 44.5728C72.0966 48.3057 71.1982 52.0387 69.7429 55.2908C69.5088 55.8159 69.4013 56.0057 69.376 55.9235C69.3127 55.7274 69.3633 31.286 69.4266 31.286C69.4519 31.286 69.5784 31.5075 69.705 31.7859ZM67.345 43.5288C67.345 48.9385 67.326 53.3674 67.3007 53.3674C67.2754 53.3674 66.8705 52.9878 66.4023 52.5259C63.5235 49.7104 59.3223 46.9138 54.9883 44.9271C54.0899 44.5222 52.4638 43.8578 51.9513 43.687C51.8185 43.6491 51.7236 43.5795 51.7299 43.5478C51.7425 43.5099 51.983 43.4023 52.255 43.3074C53.3559 42.9278 55.0516 42.1875 56.5258 41.4409C60.3789 39.4922 64.0486 36.9298 66.4529 34.5065C66.8894 34.0699 67.2691 33.703 67.3007 33.6966C67.326 33.6966 67.345 38.1192 67.345 43.5288ZM19.0192 34.3167C19.481 34.8039 20.6768 35.9048 21.3665 36.4616C24.1504 38.7266 27.6492 40.8715 30.9962 42.3773C31.6606 42.6747 33.5523 43.4276 33.9573 43.5605C34.1914 43.6301 34.261 43.7376 34.1154 43.7756C33.8307 43.8515 32.5653 44.3324 31.8377 44.6487C28.2123 46.1799 24.144 48.6411 21.2842 51.02C20.3415 51.8109 19.0571 52.9941 18.842 53.2788C18.7471 53.399 18.6205 53.5255 18.551 53.5635C18.4371 53.6205 18.4371 53.3421 18.4371 43.7503C18.4371 35.5315 18.456 33.8801 18.5256 33.8801C18.5699 33.8801 18.7914 34.0763 19.0192 34.3167ZM46.9213 44.7626C48.579 44.9208 50.7555 45.5155 53.1408 46.4709C54.4379 46.9897 54.8428 47.1732 56.3929 47.9514C57.7532 48.6348 58.0506 48.8119 59.4995 49.7799C62.8655 52.0324 65.5608 54.5126 66.9401 56.6258C67.2944 57.1699 67.5791 57.714 67.5285 57.7583C67.383 57.9102 65.8075 57.8279 64.5674 57.6002C61.2015 56.9928 56.6333 55.0947 53.3876 52.9561C50.4835 51.039 48.0855 49.008 46.5607 47.1669C45.8268 46.2748 44.9536 44.9018 45.0422 44.7626C45.0928 44.6804 46.0482 44.6804 46.9213 44.7626ZM40.8347 44.9461C40.8347 45.1169 40.259 46.066 39.7085 46.8126C39.0695 47.673 37.0006 49.723 35.8048 50.6847C32.6539 53.2155 30.0408 54.7467 26.3775 56.2145C23.9353 57.1889 21.6702 57.79 19.9176 57.9228C19.171 57.9798 18.3105 57.9545 18.3105 57.8722C18.3105 57.8532 18.4118 57.6508 18.5446 57.423C19.8353 55.0947 22.7901 52.2791 26.5673 49.7926C27.9403 48.8878 28.2946 48.6854 29.8131 47.9261C33.7358 45.9711 37.4371 44.8575 40.0945 44.8322C40.7841 44.8259 40.8347 44.8322 40.8347 44.9461ZM43.4225 46.667C44.4791 48.5082 45.2637 51.3491 45.6749 54.8226C45.8964 56.6764 45.9786 58.3657 45.928 59.8526C45.7572 64.8699 44.6879 69.5266 43.1884 71.7917C43.1061 71.9245 43.0112 72.0321 42.9923 72.0321C42.8594 72.0321 42.2836 71.0071 41.923 70.134C41.246 68.5143 40.7588 66.5339 40.3665 63.8386C39.5883 58.5302 40.2527 51.8932 41.9673 47.8059C42.3153 46.9771 42.8847 46.0027 43.0049 46.047C43.0429 46.0597 43.2327 46.338 43.4225 46.667ZM48.0476 51.697C49.2307 52.6967 51.5907 54.3481 53.1725 55.2781C56.608 57.3028 60.1195 58.8276 63.0742 59.5805C63.3906 59.6628 63.6563 59.7577 63.669 59.7893C63.6816 59.8209 63.4539 59.9918 63.1628 60.1563C62.5175 60.5296 62.7642 60.3904 59.2148 62.4277C57.614 63.3514 55.0832 64.813 53.5837 65.6734C52.0905 66.5339 50.6796 67.3438 50.4518 67.4766C50.2241 67.6032 49.2877 68.141 48.3766 68.6725C47.4591 69.2039 46.6936 69.6215 46.6809 69.6089C46.6619 69.5899 46.7252 69.3178 46.8138 68.9888C47.4465 66.7427 47.8135 64.2182 47.9906 60.9598C48.1235 58.448 47.94 54.9618 47.5414 52.4753C47.4338 51.8299 47.3516 51.2668 47.3516 51.2225C47.3516 51.115 47.4212 51.1656 48.0476 51.697ZM38.595 51.4503C38.4811 51.9944 38.1584 54.4493 38.0762 55.4237C37.88 57.6761 37.9496 61.8456 38.2154 64.0284C38.4748 66.1416 38.9683 68.6345 39.2973 69.4444C39.3542 69.5899 39.3732 69.7227 39.3416 69.7544C39.3099 69.786 39.0822 69.6848 38.8101 69.5203C38.5507 69.3621 37.8104 68.9255 37.1651 68.5522C36.5197 68.1789 34.2863 66.8819 32.1984 65.6734C30.1104 64.4587 27.6745 63.0541 26.7887 62.5416C23.2519 60.4979 22.3282 59.9538 22.3092 59.8969C22.2966 59.8589 22.5117 59.783 22.7837 59.7197C23.8657 59.4856 26.175 58.6694 27.9592 57.8849C28.6932 57.5685 31.0532 56.379 31.6922 56.0121C33.1854 55.1453 33.4131 54.9997 34.7608 54.1076C35.7731 53.437 37.3232 52.2791 37.9876 51.7034C38.5191 51.2415 38.6582 51.1845 38.595 51.4503ZM19.5506 60.6561C19.791 60.8016 20.2466 61.0674 20.5566 61.2445C20.873 61.428 21.3855 61.7254 21.6955 61.9089C22.4104 62.3264 25.3145 64.0158 26.4408 64.6611C26.7571 64.8383 27.567 65.3128 28.244 65.7051C28.9209 66.0974 30.0029 66.7237 30.6482 67.097C31.2936 67.4703 32.7172 68.2928 33.8117 68.9319C34.9063 69.5709 36.0895 70.2542 36.4375 70.4503C36.7854 70.6465 37.5953 71.1147 38.2407 71.4943C39.9426 72.4877 40.221 72.6458 40.3729 72.6901C40.4425 72.7154 40.5247 72.7787 40.5437 72.8293C40.5943 72.9559 40.278 72.9242 38.6899 72.6585C34.2293 71.8992 30.2623 70.3301 26.4724 67.8246C24.8653 66.7617 23.0748 65.3191 22.0498 64.2562C21.2526 63.4337 19.9366 61.8329 19.2912 60.9092C19.19 60.7573 19.0634 60.5802 19.0128 60.5106C18.8673 60.3081 19.0698 60.3587 19.5506 60.6561ZM66.8388 60.4536C66.8388 60.6181 65.1558 62.7757 64.2511 63.7753C63.5931 64.4966 62.7389 65.2748 61.619 66.1733C57.3546 69.5899 52.5587 71.7411 47.1301 72.6648C45.6812 72.9116 45.1751 72.9622 45.213 72.8546C45.2257 72.804 45.2826 72.7471 45.3333 72.7218C45.3839 72.6901 46.6619 71.9625 48.1741 71.0957C49.6863 70.2289 51.2427 69.3368 51.6223 69.1217C52.3563 68.7041 52.9067 68.3814 54.3113 67.5715C54.7795 67.2995 56.0323 66.5845 57.0952 65.9708C58.1581 65.3634 59.3982 64.6485 59.8475 64.3891C60.8598 63.807 63.1755 62.472 65.042 61.4027C65.8075 60.9598 66.5098 60.5549 66.5921 60.4979C66.7629 60.3777 66.8388 60.3651 66.8388 60.4536Z" fill="#454545"/>
<path d="M96.9686 22.7403V28.5642C99.1554 28.5182 100.007 27.2291 100.836 25.7558C101.434 24.7199 101.895 23.5229 102.631 22.487C102.977 22.0036 103.414 21.7964 104.036 21.9115C104.657 22.0266 104.818 22.418 104.358 23.1316C103.713 24.0754 103.115 25.2494 102.539 26.3773C101.964 27.5053 100.882 28.6333 99.6619 29.1397C101.734 29.5771 102.954 31.4417 103.552 33.3062C104.174 35.2859 104.45 36.1837 105.048 37.3116C105.325 37.8181 105.071 38.1173 104.519 38.2324C104.013 38.3475 103.552 38.1634 103.322 37.8871C102.654 37.0124 102.286 35.5391 101.849 34.25C100.974 31.6258 99.9611 29.9454 96.9686 30.0375V37.4267C96.9686 38.0943 96.4621 38.2785 95.9787 38.2785C95.4953 38.2785 95.0119 38.0943 95.0119 37.4267V22.7403C95.0119 22.0497 95.4953 21.8655 95.9787 21.8655C96.4621 21.8655 96.9686 22.0497 96.9686 22.7403ZM121.403 30.0144C121.403 26.9759 120.735 23.2006 116.868 23.2006C113 23.2006 112.333 26.9759 112.333 30.0144C112.333 33.053 113 36.8052 116.868 36.8052C120.735 36.8052 121.403 33.053 121.403 30.0144ZM110.238 30.0144C110.238 25.1113 112.264 21.6813 116.868 21.6813C121.472 21.6813 123.497 25.1113 123.497 30.0144C123.497 34.9176 121.426 38.3245 116.868 38.3245C112.31 38.3245 110.238 34.9176 110.238 30.0144ZM141.118 30.0144C141.118 26.9759 140.451 23.2006 136.584 23.2006C132.716 23.2006 132.049 26.9759 132.049 30.0144C132.049 33.053 132.716 36.8052 136.584 36.8052C140.451 36.8052 141.118 33.053 141.118 30.0144ZM129.954 30.0144C129.954 25.1113 131.98 21.6813 136.584 21.6813C141.188 21.6813 143.213 25.1113 143.213 30.0144C143.213 34.9176 141.142 38.3245 136.584 38.3245C132.026 38.3245 129.954 34.9176 129.954 30.0144ZM161.203 24.0754V37.4037C161.203 38.0943 160.696 38.2785 160.213 38.2785C159.729 38.2785 159.223 38.0943 159.223 37.4037V24.3746C159.223 23.9142 159.062 23.7301 158.601 23.7301H152.939C152.478 23.7301 152.317 23.9142 152.317 24.3746V37.4037C152.317 38.0943 151.811 38.2785 151.327 38.2785C150.844 38.2785 150.36 38.0943 150.36 37.4037V24.0754C150.36 22.9244 150.66 21.9576 152.248 21.9576H159.292C160.88 21.9576 161.203 22.9244 161.203 24.0754ZM169.02 35.9535V24.0754C169.02 22.9244 169.342 21.9576 170.907 21.9576H177.836C178.458 21.9576 178.619 22.395 178.619 22.8553C178.619 23.2927 178.458 23.7301 177.836 23.7301H171.598C171.138 23.7301 170.977 23.9142 170.977 24.3746V28.8404H176.409C177.008 28.8404 177.146 29.2548 177.146 29.6922C177.146 30.1295 177.008 30.5439 176.409 30.5439H170.977V35.6542C170.977 36.1146 171.138 36.2988 171.598 36.2988H177.836C178.458 36.2988 178.619 36.7362 178.619 37.1965C178.619 37.6339 178.458 38.0713 177.836 38.0713H170.907C169.342 38.0713 169.02 37.1045 169.02 35.9535ZM187.703 37.4267C187.703 38.0943 187.196 38.2785 186.713 38.2785C186.229 38.2785 185.746 38.0943 185.746 37.4267V24.0754C185.746 22.9244 186.045 21.9576 187.633 21.9576H191.271C194.148 21.9576 196.22 23.7761 196.22 26.7687C196.22 29.5771 194.286 31.5337 191.478 31.5337H187.703V37.4267ZM187.703 29.8533H191.294C193.135 29.8533 194.24 28.5872 194.24 26.7687C194.24 25.0422 193.204 23.638 191.432 23.638H188.324C187.864 23.638 187.703 23.8222 187.703 24.3056V29.8533ZM207.813 22.7403L212.716 37.4267C212.923 38.0943 212.509 38.2785 212.002 38.2785C211.312 38.2785 210.897 38.1173 210.69 37.4267L209.378 33.3753H203.761L202.449 37.4267C202.242 38.1173 201.828 38.2785 201.114 38.2785C200.631 38.2785 200.216 38.0943 200.423 37.4267L205.327 22.7403C205.534 22.1417 205.948 21.8655 206.57 21.8655C207.191 21.8655 207.606 22.1417 207.813 22.7403ZM204.245 31.856H208.895L207.329 26.9528C207.007 25.963 206.8 24.9731 206.57 23.9833C206.339 24.9731 206.132 25.963 205.81 26.9528L204.245 31.856ZM219.468 35.9535V22.7403C219.468 22.0497 219.951 21.8655 220.435 21.8655C220.918 21.8655 221.424 22.0497 221.424 22.7403V35.6542C221.424 36.1146 221.586 36.2988 222.046 36.2988H228.445V22.7403C228.445 22.0497 228.952 21.8655 229.435 21.8655C229.919 21.8655 230.402 22.0497 230.402 22.7403V36.2988H230.747C231.921 36.2988 232.336 36.8513 232.336 37.8641V40.6725C232.336 41.3631 231.967 41.5472 231.461 41.5472C230.978 41.5472 230.586 41.3631 230.586 40.6725V38.4626C230.586 38.0252 230.264 38.0713 230.126 38.0713H221.355C219.767 38.0713 219.468 37.1045 219.468 35.9535ZM240.96 22.7403V34.7795C241.26 34.1349 241.536 33.6515 241.996 32.9149L248.511 22.3029C248.695 21.9806 249.04 21.8655 249.386 21.8655C249.892 21.8655 250.375 22.0497 250.375 22.7403V37.4267C250.375 38.0943 249.892 38.2785 249.386 38.2785C248.902 38.2785 248.419 38.0943 248.419 37.4267V25.3415C248.212 25.8709 247.866 26.4924 247.544 27.0219L240.845 37.8871C240.684 38.1864 240.339 38.2785 239.994 38.2785C239.487 38.2785 239.004 38.0943 239.004 37.4267V22.7403C239.004 22.0497 239.487 21.8655 239.994 21.8655C240.477 21.8655 240.96 22.0497 240.96 22.7403ZM266.26 37.4267V31.1194H264.74C262.876 31.1194 261.863 31.902 260.896 33.9968C260.297 35.332 259.883 36.7362 258.916 37.8871C258.686 38.1634 258.111 38.3475 257.604 38.2324C257.052 38.1173 256.914 37.8181 257.213 37.3116C258.019 35.9765 258.525 34.6414 259.193 33.2602C259.699 32.1553 260.297 31.2345 261.402 30.705C259.262 30.2677 257.742 29.0016 257.742 26.5615C257.742 23.569 259.814 21.9576 262.692 21.9576H266.329C267.917 21.9576 268.216 22.9244 268.216 24.0754V37.4267C268.216 38.0943 267.733 38.2785 267.249 38.2785C266.743 38.2785 266.26 38.0943 266.26 37.4267ZM266.26 29.462V24.3056C266.26 23.8222 266.098 23.638 265.638 23.638H262.53C260.758 23.638 259.722 24.835 259.722 26.5615C259.722 28.7023 261.448 29.462 263.336 29.462H266.26Z" fill="#454545"/>
<path d="M95.8866 48.7305L99.4777 57.4319L100.076 58.9742L100.606 57.4089L103.782 48.7305C103.99 48.178 104.105 47.8557 105.071 47.8557C105.578 47.8557 105.992 48.0399 105.716 48.7305L101.066 60.9539C100.053 63.486 99.3166 64.3608 97.0606 64.1766C96.8074 64.1766 96.1859 64.1076 96.2089 63.2789C96.2319 62.7724 96.324 62.4271 96.9916 62.4962C98.5799 62.6343 98.8562 61.8056 99.1324 61.115L93.8379 48.7305C93.5156 48.0399 94.1372 47.8557 94.6666 47.8557C95.6104 47.8557 95.6104 48.178 95.8866 48.7305ZM114.324 63.417C114.324 64.0845 113.818 64.2687 113.334 64.2687C112.851 64.2687 112.367 64.0845 112.367 63.417V50.0656C112.367 48.9146 112.667 47.9478 114.255 47.9478H117.892C120.77 47.9478 122.841 49.7664 122.841 52.7589C122.841 55.5673 120.908 57.524 118.099 57.524H114.324V63.417ZM114.324 55.8435H117.915C119.757 55.8435 120.862 54.5775 120.862 52.7589C120.862 51.0324 119.826 49.6282 118.053 49.6282H114.946C114.485 49.6282 114.324 49.8124 114.324 50.2958V55.8435ZM134.434 48.7305L139.337 63.417C139.545 64.0845 139.13 64.2687 138.624 64.2687C137.933 64.2687 137.519 64.1076 137.312 63.417L136 59.3655H130.383L129.071 63.417C128.863 64.1076 128.449 64.2687 127.735 64.2687C127.252 64.2687 126.838 64.0845 127.045 63.417L131.948 48.7305C132.155 48.132 132.57 47.8557 133.191 47.8557C133.813 47.8557 134.227 48.132 134.434 48.7305ZM130.866 57.8462H135.516L133.951 52.9431C133.628 51.9532 133.421 50.9634 133.191 49.9735C132.961 50.9634 132.754 51.9532 132.431 52.9431L130.866 57.8462Z" fill="#454545"/>
</svg>
