<svg width="176" height="57" viewBox="0 0 176 57" fill="none" xmlns="http://www.w3.org/2000/svg">
<path d="M55.8806 28.4838C56.0295 39.4935 48.9809 50.0697 38.7781 54.2064C20.5397 61.7796 0.331895 48.1981 0.318558 28.4838C0.245204 8.6983 20.5286 -4.84322 38.7825 2.75221C48.9809 6.89558 56.0317 17.4741 55.8806 28.4838ZM55.8584 28.4838C55.9473 13.364 43.226 0.736097 28.124 0.847238C13.0465 0.711645 0.347452 13.4129 0.440811 28.4838C0.391909 48.1981 20.5308 61.5596 38.7069 54.033C48.8898 49.9675 55.9562 39.4557 55.8584 28.4838Z" fill="white"/>
<path d="M55.9363 28.4835C56.0007 38.124 50.9482 47.7022 42.6704 52.7525C26.0369 62.982 4.58651 52.7036 0.629863 33.9517C-4.39152 9.83173 21.6223 -8.60893 42.6904 4.18127C50.9504 9.26268 56.0163 18.832 55.9363 28.4835ZM55.8029 28.4835C55.8607 17.4405 48.6698 7.46663 38.4981 3.44107C22.6937 -2.92513 4.91549 6.4708 1.35895 23.1576C-3.13785 45.0103 18.088 61.7816 38.5203 53.5771C48.6698 49.4982 55.8829 39.5422 55.8051 28.4835H55.8029Z" fill="white"/>
<path d="M27 7.85732C25.4828 7.93153 23.8254 8.19538 22.4237 8.58705C19.1089 9.51468 16.0292 11.3081 13.5638 13.7406C11.8445 15.4392 10.5706 17.212 9.51515 19.3765C8.5298 21.3925 7.94436 23.3096 7.62691 25.5607C7.48261 26.5749 7.43726 27.2428 7.43726 28.3848C7.43726 29.5516 7.48673 30.2648 7.62691 31.2502C8.27419 35.7729 10.2779 39.7844 13.4731 42.9589C15.7241 45.1976 18.3421 46.8344 21.3105 47.8568C22.8978 48.4052 24.8726 48.8092 26.4847 48.9164C27.2721 48.97 28.7481 48.9659 29.4943 48.9164C31.5516 48.768 34.0706 48.1702 35.8641 47.3951C35.9795 47.3456 36.165 47.2632 36.2763 47.2137C36.7628 47.0075 37.9378 46.3891 38.5274 46.0387C40.3291 44.9503 42.0235 43.5444 43.4006 41.9777C45.7176 39.3474 47.3708 36.0326 48.0841 32.5901C48.3809 31.1595 48.5005 29.9597 48.5005 28.3559C48.5005 27.1809 48.4592 26.579 48.3108 25.5401C47.9892 23.2849 47.3956 21.3554 46.3937 19.3352C45.8742 18.2798 45.6104 17.8222 45.0827 17.0265C44.2663 15.8061 43.5737 14.9609 42.5059 13.889C41.3433 12.7305 40.4734 12.0172 39.2324 11.205C36.4825 9.40337 33.5388 8.33556 30.2859 7.95626C29.7911 7.89854 28.1173 7.80784 27.804 7.82021C27.7256 7.82021 27.3628 7.84082 27 7.85732ZM26.4929 9.31679C26.497 9.34153 25.9611 9.66723 25.3055 10.0424C24.65 10.4217 23.4915 11.0855 22.7329 11.5225C21.9743 11.9595 21.2982 12.3471 21.2281 12.3883C21.1621 12.4295 20.251 12.9531 19.2079 13.5509C15.8808 15.4639 14.8088 16.0823 14.3265 16.3627C14.0709 16.5111 13.8524 16.6348 13.84 16.6348C13.8317 16.6348 13.7575 16.6801 13.6709 16.7337C13.304 16.9646 12.43 17.4593 12.3888 17.4593C12.3145 17.4593 12.3805 17.3604 12.867 16.709C13.7493 15.5299 14.5574 14.6764 15.5427 13.8684C18.3833 11.5349 21.5991 10.063 25.1654 9.46521C25.8621 9.34565 26.4146 9.26319 26.4558 9.27144C26.4764 9.27556 26.4929 9.29618 26.4929 9.31679ZM30.1127 9.35802C32.5205 9.66311 35.0848 10.5124 37.2369 11.7163C39.1417 12.78 40.9063 14.1487 42.0318 15.4309C42.6172 16.0988 43.6356 17.414 43.6356 17.5006C43.6356 17.5583 43.5449 17.55 43.45 17.4841C43.4047 17.4552 43.1903 17.3274 42.9759 17.2037C42.7615 17.0759 42.1307 16.709 41.5742 16.3874C40.696 15.8762 36.5649 13.4808 34.7509 12.4295C34.4128 12.2316 33.881 11.9265 33.5759 11.7492C32.64 11.205 31.5846 10.5949 30.525 9.98881C29.9684 9.67135 29.4861 9.38276 29.4531 9.35389C29.4036 9.30442 29.4118 9.29618 29.5149 9.29618C29.585 9.29618 29.853 9.32504 30.1127 9.35802ZM28.0802 10.0878C28.4471 10.6691 28.7316 11.3452 29.0119 12.2852C29.383 13.5221 29.5809 14.6105 29.7705 16.4493C29.8777 17.4965 29.8654 19.3847 29.7458 20.5308C29.4696 23.2065 28.9542 25.1731 28.1874 26.4883C28.0761 26.6821 27.9606 26.8387 27.9276 26.8387C27.8947 26.8387 27.7875 26.6986 27.6885 26.5295C26.8681 25.1195 26.3733 23.1736 26.0641 20.1598C25.9982 19.5166 26.0023 17.2532 26.0682 16.6142C26.2868 14.495 26.5382 13.1675 26.9835 11.84C27.268 10.9783 27.7916 9.9146 27.9276 9.9146C27.9483 9.9146 28.0183 9.99293 28.0802 10.0878ZM30.6734 11.572C31.0074 11.774 31.6547 12.1492 35.4105 14.326C35.7734 14.5363 36.3505 14.8702 36.6886 15.0681C37.0308 15.266 38.2182 15.9504 39.3272 16.5936C40.4404 17.2326 41.3721 17.7809 41.4051 17.8139C41.4546 17.8593 41.4463 17.8716 41.3433 17.8922C39.4468 18.3128 37.0555 19.327 34.6684 20.7287C33.4275 21.4544 31.6134 22.7407 30.9703 23.3467C30.8837 23.4292 30.8054 23.4828 30.7889 23.4704C30.7765 23.458 30.8054 23.2148 30.8507 22.9344C31.1434 21.1658 31.263 19.1579 31.1847 17.2738C31.1146 15.6329 30.9868 14.4744 30.7311 13.184C30.624 12.6521 30.3807 11.6833 30.2983 11.4689C30.2488 11.3535 30.3683 11.3823 30.6734 11.572ZM25.5364 11.4689C25.5364 11.4854 25.4704 11.741 25.3962 12.0378C25.0004 13.5303 24.819 14.7218 24.6912 16.6513C24.5593 18.6385 24.6665 20.8359 24.9839 22.8149C25.0417 23.1859 25.0829 23.4951 25.0705 23.5034C25.0582 23.5158 24.8685 23.3756 24.65 23.1901C22.4113 21.3059 19.0677 19.4177 16.2601 18.4488C15.6746 18.2468 14.8542 18.0077 14.479 17.9335C14.3471 17.9087 14.3265 17.8428 14.4378 17.8015C14.4749 17.7892 14.7882 17.616 15.1263 17.4181C15.4685 17.2202 16.19 16.8038 16.7342 16.4905C17.2784 16.1772 18.272 15.6041 18.9399 15.2207C20.9848 14.0457 21.7558 13.6004 23.0421 12.8624C23.7224 12.4707 24.5469 11.9925 24.8768 11.7987C25.4787 11.4442 25.5364 11.4153 25.5364 11.4689ZM43.9654 19.1827C43.9654 19.2734 43.7098 19.7104 43.417 20.1309C42.1101 21.9821 39.2365 24.2744 36.5361 25.6143C34.5819 26.5873 32.8132 27.2222 31.2053 27.5231C30.6322 27.6344 29.2882 27.6839 29.2882 27.5973C29.2882 27.5231 29.7087 26.814 29.9231 26.5295C30.8796 25.2432 32.5369 23.759 34.4664 22.4603C35.4064 21.8295 35.8599 21.5698 36.936 21.0421C39.4839 19.797 41.7473 19.125 43.4418 19.1126C43.9159 19.1085 43.9654 19.1167 43.9654 19.1827ZM13.7039 19.2734C15.9632 19.6651 19.0842 20.9555 21.2487 22.3985C22.8401 23.4663 24.0811 24.4929 25.1736 25.6514C25.6683 26.1791 26.0147 26.6326 26.3568 27.2139C26.5671 27.5644 26.6083 27.6592 26.563 27.6922C26.497 27.7334 25.5075 27.7004 25.0829 27.6427C23.4255 27.4077 21.2693 26.6532 19.0842 25.5483C16.9238 24.4558 14.3017 22.4273 12.9247 20.7782C12.397 20.1474 11.8528 19.2858 11.9146 19.1827C11.96 19.1126 13.102 19.1703 13.7039 19.2734ZM10.7231 24.9093C10.7066 27.3994 10.6943 31.011 10.6943 32.9405L10.6902 36.4449L10.6077 36.2882C10.451 35.9914 10.0635 35.0019 9.82436 34.2845C9.11112 32.1654 8.68647 29.465 8.80191 27.7952C8.95857 25.4617 9.41208 23.4415 10.2408 21.3801C10.5665 20.5597 10.6489 20.3865 10.7025 20.3865C10.7355 20.3865 10.7396 21.6151 10.7231 24.9093ZM45.4207 20.7122C46.5586 23.1983 47.2842 26.7316 47.1358 29.0445C46.9792 31.4769 46.3937 33.9094 45.4455 36.0285C45.2929 36.3707 45.2228 36.4944 45.2063 36.4408C45.1651 36.313 45.1981 20.3865 45.2393 20.3865C45.2558 20.3865 45.3383 20.5308 45.4207 20.7122ZM43.8829 28.3642C43.8829 31.8892 43.8706 34.7752 43.8541 34.7752C43.8376 34.7752 43.5737 34.5278 43.2686 34.2268C41.3927 32.3922 38.6552 30.5699 35.8311 29.2753C35.2456 29.0115 34.1861 28.5786 33.8521 28.4673C33.7655 28.4425 33.7037 28.3972 33.7078 28.3766C33.7161 28.3518 33.8727 28.2817 34.05 28.2199C34.7674 27.9725 35.8723 27.4902 36.8329 27.0037C39.3437 25.7338 41.7349 24.0641 43.3016 22.4851C43.5861 22.2006 43.8335 21.9615 43.8541 21.9573C43.8706 21.9573 43.8829 24.8392 43.8829 28.3642ZM12.3929 22.3614C12.6938 22.6788 13.4731 23.3962 13.9224 23.759C15.7365 25.235 18.0164 26.6326 20.1974 27.6138C20.6303 27.8076 21.863 28.2982 22.1268 28.3848C22.2794 28.4302 22.3247 28.5002 22.2299 28.525C22.0444 28.5744 21.2198 28.8878 20.7457 29.0939C18.3833 30.0916 15.7324 31.6954 13.8688 33.2456C13.2545 33.761 12.4176 34.5319 12.2774 34.7174C12.2156 34.7958 12.1331 34.8782 12.0878 34.903C12.0136 34.9401 12.0136 34.7587 12.0136 28.5085C12.0136 23.153 12.0259 22.0769 12.0713 22.0769C12.1002 22.0769 12.2445 22.2047 12.3929 22.3614ZM30.5745 29.1681C31.6547 29.2712 33.0729 29.6588 34.6272 30.2813C35.4724 30.6194 35.7362 30.7389 36.7463 31.246C37.6327 31.6913 37.8265 31.8067 38.7706 32.4375C40.964 33.9052 42.7203 35.5214 43.6191 36.8984C43.8499 37.253 44.0355 37.6075 44.0025 37.6364C43.9077 37.7353 42.8811 37.6817 42.073 37.5333C39.8797 37.1375 36.903 35.9007 34.788 34.5072C32.8956 33.258 31.3331 31.9345 30.3395 30.7348C29.8612 30.1535 29.2923 29.2588 29.35 29.1681C29.383 29.1145 30.0055 29.1145 30.5745 29.1681ZM26.6083 29.2877C26.6083 29.399 26.2332 30.0174 25.8745 30.5039C25.4581 31.0646 24.1099 32.4004 23.3307 33.0271C21.2775 34.6762 19.5748 35.6739 17.1877 36.6304C15.5963 37.2653 14.1203 37.657 12.9783 37.7436C12.4918 37.7807 11.9311 37.7642 11.9311 37.7106C11.9311 37.6982 11.9971 37.5663 12.0837 37.4179C12.9247 35.9007 14.8501 34.066 17.3114 32.4458C18.206 31.8562 18.4369 31.7243 19.4264 31.2295C21.9825 29.9556 24.3944 29.23 26.126 29.2135C26.5754 29.2094 26.6083 29.2135 26.6083 29.2877ZM28.2946 30.4091C28.9831 31.6088 29.4943 33.46 29.7623 35.7234C29.9066 36.9314 29.9602 38.0322 29.9272 39.001C29.8159 42.2704 29.1191 45.3048 28.142 46.7808C28.0884 46.8674 28.0266 46.9375 28.0142 46.9375C27.9276 46.9375 27.5525 46.2696 27.3175 45.7006C26.8763 44.6452 26.5589 43.3547 26.3032 41.5984C25.7961 38.1394 26.229 33.8145 27.3463 31.1512C27.5731 30.6111 27.9441 29.9762 28.0225 30.0051C28.0472 30.0133 28.1709 30.1947 28.2946 30.4091ZM31.3083 33.6867C32.0793 34.3381 33.6171 35.4142 34.6478 36.0203C36.8865 37.3396 39.1747 38.3331 41.1 38.8238C41.3062 38.8774 41.4793 38.9392 41.4876 38.9598C41.4958 38.9804 41.3474 39.0917 41.1577 39.1989C40.7372 39.4422 40.898 39.3515 38.5851 40.679C37.542 41.281 35.8929 42.2333 34.9158 42.794C33.9428 43.3547 33.0234 43.8825 32.875 43.969C32.7266 44.0515 32.1164 44.4019 31.5227 44.7482C30.9249 45.0946 30.4261 45.3667 30.4178 45.3584C30.4054 45.3461 30.4467 45.1688 30.5044 44.9544C30.9167 43.4908 31.1558 41.8458 31.2712 39.7225C31.3578 38.0858 31.2383 35.8141 30.9785 34.1938C30.9084 33.7733 30.8548 33.4064 30.8548 33.3775C30.8548 33.3074 30.9002 33.3404 31.3083 33.6867ZM25.1489 33.5259C25.0747 33.8805 24.8644 35.4802 24.8108 36.1151C24.683 37.5828 24.7283 40.2997 24.9015 41.7221C25.0705 43.0991 25.3921 44.7235 25.6065 45.2512C25.6436 45.3461 25.656 45.4326 25.6354 45.4532C25.6147 45.4739 25.4663 45.4079 25.289 45.3007C25.12 45.1976 24.6376 44.9132 24.2171 44.6699C23.7966 44.4267 22.3412 43.5815 20.9807 42.794C19.6202 42.0025 18.0329 41.0872 17.4557 40.7532C15.151 39.4216 14.5491 39.067 14.5367 39.0299C14.5285 39.0052 14.6687 38.9557 14.846 38.9145C15.551 38.7619 17.0558 38.2301 18.2184 37.7189C18.6967 37.5127 20.2345 36.7376 20.6509 36.4985C21.6239 35.9337 21.7723 35.8388 22.6504 35.2575C23.3101 34.8205 24.3202 34.066 24.7531 33.6909C25.0994 33.3899 25.1901 33.3528 25.1489 33.5259ZM12.7392 39.5246C12.8959 39.6195 13.1927 39.7926 13.3947 39.9081C13.6009 40.0276 13.9348 40.2214 14.1368 40.341C14.6027 40.6131 16.4951 41.7139 17.2289 42.1344C17.4351 42.2498 17.9628 42.559 18.4039 42.8146C18.8451 43.0703 19.5501 43.4784 19.9706 43.7217C20.3911 43.9649 21.3188 44.5009 22.032 44.9173C22.7453 45.3337 23.5162 45.779 23.743 45.9068C23.9697 46.0346 24.4975 46.3397 24.918 46.587C26.027 47.2343 26.2084 47.3374 26.3074 47.3662C26.3527 47.3827 26.4063 47.424 26.4187 47.4569C26.4517 47.5394 26.2455 47.5188 25.2107 47.3456C22.3041 46.8509 19.7191 45.8284 17.2496 44.1958C16.2024 43.5032 15.0356 42.5632 14.3677 41.8705C13.8482 41.3346 12.9907 40.2915 12.5702 39.6896C12.5042 39.5906 12.4217 39.4752 12.3888 39.4298C12.2939 39.2979 12.4259 39.3309 12.7392 39.5246ZM43.5531 39.3927C43.5531 39.4999 42.4564 40.9058 41.8669 41.5572C41.4381 42.0272 40.8815 42.5343 40.1518 43.1197C37.373 45.3461 34.2479 46.7478 30.7105 47.3497C29.7664 47.5105 29.4366 47.5435 29.4613 47.4734C29.4696 47.4404 29.5067 47.4033 29.5397 47.3868C29.5726 47.3662 30.4054 46.8921 31.3908 46.3273C32.3762 45.7625 33.3904 45.1811 33.6377 45.041C34.116 44.7689 34.4747 44.5586 35.3899 44.0309C35.695 43.8536 36.5113 43.3877 37.204 42.9878C37.8966 42.592 38.7047 42.1261 38.9974 41.9571C39.657 41.5778 41.166 40.7079 42.3822 40.0111C42.8811 39.7225 43.3387 39.4587 43.3923 39.4216C43.5036 39.3432 43.5531 39.335 43.5531 39.3927Z" fill="white"/>
<path d="M63.1873 15.4372V19.2322C64.6123 19.2022 65.1673 18.3622 65.7073 17.4022C66.0973 16.7272 66.3973 15.9472 66.8773 15.2722C67.1023 14.9572 67.3873 14.8222 67.7923 14.8972C68.1973 14.9722 68.3023 15.2272 68.0023 15.6922C67.5823 16.3072 67.1923 17.0722 66.8173 17.8072C66.4423 18.5422 65.7373 19.2772 64.9423 19.6072C66.2923 19.8922 67.0873 21.1072 67.4773 22.3222C67.8823 23.6122 68.0623 24.1972 68.4523 24.9322C68.6323 25.2622 68.4673 25.4572 68.1073 25.5322C67.7773 25.6072 67.4773 25.4872 67.3273 25.3072C66.8923 24.7372 66.6523 23.7772 66.3673 22.9372C65.7973 21.2272 65.1373 20.1322 63.1873 20.1922V25.0072C63.1873 25.4422 62.8573 25.5622 62.5423 25.5622C62.2273 25.5622 61.9123 25.4422 61.9123 25.0072V15.4372C61.9123 14.9872 62.2273 14.8672 62.5423 14.8672C62.8573 14.8672 63.1873 14.9872 63.1873 15.4372ZM79.1089 20.1772C79.1089 18.1972 78.6739 15.7372 76.1539 15.7372C73.6339 15.7372 73.1989 18.1972 73.1989 20.1772C73.1989 22.1572 73.6339 24.6022 76.1539 24.6022C78.6739 24.6022 79.1089 22.1572 79.1089 20.1772ZM71.8339 20.1772C71.8339 16.9822 73.1539 14.7472 76.1539 14.7472C79.1539 14.7472 80.4739 16.9822 80.4739 20.1772C80.4739 23.3722 79.1239 25.5922 76.1539 25.5922C73.1839 25.5922 71.8339 23.3722 71.8339 20.1772ZM91.9562 20.1772C91.9562 18.1972 91.5212 15.7372 89.0012 15.7372C86.4812 15.7372 86.0462 18.1972 86.0462 20.1772C86.0462 22.1572 86.4812 24.6022 89.0012 24.6022C91.5212 24.6022 91.9562 22.1572 91.9562 20.1772ZM84.6812 20.1772C84.6812 16.9822 86.0012 14.7472 89.0012 14.7472C92.0012 14.7472 93.3212 16.9822 93.3212 20.1772C93.3212 23.3722 91.9712 25.5922 89.0012 25.5922C86.0312 25.5922 84.6812 23.3722 84.6812 20.1772ZM105.043 16.3072V24.9922C105.043 25.4422 104.713 25.5622 104.398 25.5622C104.083 25.5622 103.753 25.4422 103.753 24.9922V16.5022C103.753 16.2022 103.648 16.0822 103.348 16.0822H99.6585C99.3585 16.0822 99.2535 16.2022 99.2535 16.5022V24.9922C99.2535 25.4422 98.9235 25.5622 98.6085 25.5622C98.2935 25.5622 97.9785 25.4422 97.9785 24.9922V16.3072C97.9785 15.5572 98.1735 14.9272 99.2085 14.9272H103.798C104.833 14.9272 105.043 15.5572 105.043 16.3072ZM110.137 24.0472V16.3072C110.137 15.5572 110.347 14.9272 111.367 14.9272H115.882C116.287 14.9272 116.392 15.2122 116.392 15.5122C116.392 15.7972 116.287 16.0822 115.882 16.0822H111.817C111.517 16.0822 111.412 16.2022 111.412 16.5022V19.4122H114.952C115.342 19.4122 115.432 19.6822 115.432 19.9672C115.432 20.2522 115.342 20.5222 114.952 20.5222H111.412V23.8522C111.412 24.1522 111.517 24.2722 111.817 24.2722H115.882C116.287 24.2722 116.392 24.5572 116.392 24.8572C116.392 25.1422 116.287 25.4272 115.882 25.4272H111.367C110.347 25.4272 110.137 24.7972 110.137 24.0472ZM122.311 25.0072C122.311 25.4422 121.981 25.5622 121.666 25.5622C121.351 25.5622 121.036 25.4422 121.036 25.0072V16.3072C121.036 15.5572 121.231 14.9272 122.266 14.9272H124.636C126.511 14.9272 127.861 16.1122 127.861 18.0622C127.861 19.8922 126.601 21.1672 124.771 21.1672H122.311V25.0072ZM122.311 20.0722H124.651C125.851 20.0722 126.571 19.2472 126.571 18.0622C126.571 16.9372 125.896 16.0222 124.741 16.0222H122.716C122.416 16.0222 122.311 16.1422 122.311 16.4572V20.0722ZM135.415 15.4372L138.61 25.0072C138.745 25.4422 138.475 25.5622 138.145 25.5622C137.695 25.5622 137.425 25.4572 137.29 25.0072L136.435 22.3672H132.775L131.92 25.0072C131.785 25.4572 131.515 25.5622 131.05 25.5622C130.735 25.5622 130.465 25.4422 130.6 25.0072L133.795 15.4372C133.93 15.0472 134.2 14.8672 134.605 14.8672C135.01 14.8672 135.28 15.0472 135.415 15.4372ZM133.09 21.3772H136.12L135.1 18.1822C134.89 17.5372 134.755 16.8922 134.605 16.2472C134.455 16.8922 134.32 17.5372 134.11 18.1822L133.09 21.3772ZM143.01 24.0472V15.4372C143.01 14.9872 143.325 14.8672 143.64 14.8672C143.955 14.8672 144.285 14.9872 144.285 15.4372V23.8522C144.285 24.1522 144.39 24.2722 144.69 24.2722H148.86V15.4372C148.86 14.9872 149.19 14.8672 149.505 14.8672C149.82 14.8672 150.135 14.9872 150.135 15.4372V24.2722H150.36C151.125 24.2722 151.395 24.6322 151.395 25.2922V27.1222C151.395 27.5722 151.155 27.6922 150.825 27.6922C150.51 27.6922 150.255 27.5722 150.255 27.1222V25.6822C150.255 25.3972 150.045 25.4272 149.955 25.4272H144.24C143.205 25.4272 143.01 24.7972 143.01 24.0472ZM157.015 15.4372V23.2822C157.21 22.8622 157.39 22.5472 157.69 22.0672L161.935 15.1522C162.055 14.9422 162.28 14.8672 162.505 14.8672C162.835 14.8672 163.15 14.9872 163.15 15.4372V25.0072C163.15 25.4422 162.835 25.5622 162.505 25.5622C162.19 25.5622 161.875 25.4422 161.875 25.0072V17.1322C161.74 17.4772 161.515 17.8822 161.305 18.2272L156.94 25.3072C156.835 25.5022 156.61 25.5622 156.385 25.5622C156.055 25.5622 155.74 25.4422 155.74 25.0072V15.4372C155.74 14.9872 156.055 14.8672 156.385 14.8672C156.7 14.8672 157.015 14.9872 157.015 15.4372ZM173.501 25.0072V20.8972H172.511C171.296 20.8972 170.636 21.4072 170.006 22.7722C169.616 23.6422 169.346 24.5572 168.716 25.3072C168.566 25.4872 168.191 25.6072 167.861 25.5322C167.501 25.4572 167.411 25.2622 167.606 24.9322C168.131 24.0622 168.461 23.1922 168.896 22.2922C169.226 21.5722 169.616 20.9722 170.336 20.6272C168.941 20.3422 167.951 19.5172 167.951 17.9272C167.951 15.9772 169.301 14.9272 171.176 14.9272H173.546C174.581 14.9272 174.776 15.5572 174.776 16.3072V25.0072C174.776 25.4422 174.461 25.5622 174.146 25.5622C173.816 25.5622 173.501 25.4422 173.501 25.0072ZM173.501 19.8172V16.4572C173.501 16.1422 173.396 16.0222 173.096 16.0222H171.071C169.916 16.0222 169.241 16.8022 169.241 17.9272C169.241 19.3222 170.366 19.8172 171.596 19.8172H173.501Z" fill="white"/>
<path d="M62.4823 32.3728L64.8223 38.0428L65.2123 39.0478L65.5573 38.0278L67.6273 32.3728C67.7623 32.0128 67.8373 31.8028 68.4673 31.8028C68.7973 31.8028 69.0673 31.9228 68.8873 32.3728L65.8573 40.3378C65.1973 41.9878 64.7173 42.5578 63.2473 42.4378C63.0823 42.4378 62.6773 42.3928 62.6923 41.8528C62.7073 41.5228 62.7673 41.2978 63.2023 41.3428C64.2373 41.4328 64.4173 40.8928 64.5973 40.4428L61.1473 32.3728C60.9373 31.9228 61.3423 31.8028 61.6873 31.8028C62.3023 31.8028 62.3023 32.0128 62.4823 32.3728ZM74.4964 41.9428C74.4964 42.3778 74.1664 42.4978 73.8514 42.4978C73.5364 42.4978 73.2214 42.3778 73.2214 41.9428V33.2428C73.2214 32.4928 73.4164 31.8628 74.4514 31.8628H76.8214C78.6964 31.8628 80.0464 33.0478 80.0464 34.9978C80.0464 36.8278 78.7864 38.1028 76.9564 38.1028H74.4964V41.9428ZM74.4964 37.0078H76.8364C78.0364 37.0078 78.7564 36.1828 78.7564 34.9978C78.7564 33.8728 78.0814 32.9578 76.9264 32.9578H74.9014C74.6014 32.9578 74.4964 33.0778 74.4964 33.3928V37.0078ZM87.6006 32.3728L90.7956 41.9428C90.9306 42.3778 90.6606 42.4978 90.3306 42.4978C89.8806 42.4978 89.6106 42.3928 89.4756 41.9428L88.6206 39.3028H84.9606L84.1056 41.9428C83.9706 42.3928 83.7006 42.4978 83.2356 42.4978C82.9206 42.4978 82.6506 42.3778 82.7856 41.9428L85.9806 32.3728C86.1156 31.9828 86.3856 31.8028 86.7906 31.8028C87.1956 31.8028 87.4656 31.9828 87.6006 32.3728ZM85.2756 38.3128H88.3056L87.2856 35.1178C87.0756 34.4728 86.9406 33.8278 86.7906 33.1828C86.6406 33.8278 86.5056 34.4728 86.2956 35.1178L85.2756 38.3128Z" fill="white"/>
</svg>
