<svg width="59" height="59" viewBox="0 0 59 59" fill="none" xmlns="http://www.w3.org/2000/svg">
<path d="M27.5308 5.56004C29.7856 3.80633 33.0019 4.04449 34.9741 6.11092C36.2084 7.40599 37.9908 8.02838 39.7652 7.78202C42.5952 7.39078 45.2616 9.20533 45.9362 11.9815C46.3577 13.7205 47.5908 15.1502 49.2488 15.8251C51.8968 16.9011 53.2986 19.8057 52.4926 22.547C51.9879 24.2636 52.3407 26.1191 53.44 27.5307C55.1938 29.7855 54.956 33.0038 52.8892 34.974C51.5941 36.2083 50.9717 37.9907 51.2181 39.7651C51.6093 42.5951 49.7948 45.2616 47.0186 45.9361C45.2796 46.3577 43.8499 47.5907 43.1749 49.2487C42.099 51.8967 39.1944 53.2985 36.4531 52.4925C34.7365 51.9878 32.881 52.3406 31.4693 53.44C29.2146 55.1937 25.9983 54.9555 24.0261 52.8891C22.7918 51.594 21.0093 50.9716 19.235 51.218C16.405 51.6092 13.7385 49.7947 13.064 47.0185C12.6424 45.2795 11.4094 43.8498 9.75136 43.1749C7.10339 42.0989 5.70159 39.1943 6.50758 36.453C7.01225 34.7364 6.65951 32.8809 5.56013 31.4693C3.80642 29.2145 4.0442 25.9962 6.11101 24.026C7.40608 22.7917 8.02847 21.0093 7.78211 19.2349C7.39087 16.4049 9.20542 13.7385 11.9816 13.0639C13.7206 12.6424 15.1503 11.4093 15.8252 9.75127C16.8992 7.10369 19.8058 5.70151 22.5471 6.50749C24.2637 7.01216 26.1192 6.65943 27.5308 5.56004Z" fill="#EAB850"/>
<path d="M19.0748 36.258C17.3379 36.5882 15.9881 36.063 15.0253 34.6825L16.3291 33.7018C16.6466 34.13 17.0101 34.4355 17.4194 34.6183C17.8287 34.801 18.2967 34.8424 18.8233 34.7423C19.2791 34.6556 19.6392 34.4935 19.9035 34.256C20.1677 34.0184 20.2707 33.7464 20.2125 33.4399C20.1602 33.1648 19.998 32.9758 19.726 32.8728C19.4618 32.7683 19.1393 32.6993 18.7583 32.6658C18.3852 32.6309 17.9807 32.602 17.5448 32.579C17.1088 32.556 16.6936 32.4924 16.2992 32.3882C15.9112 32.2747 15.567 32.0918 15.2666 31.8394C14.974 31.5856 14.7807 31.2111 14.6865 30.716C14.6163 30.3466 14.6235 29.9992 14.7082 29.6736C14.7993 29.3387 14.9536 29.0366 15.1711 28.7672C15.3965 28.4964 15.6866 28.2661 16.0414 28.0765C16.3962 27.8869 16.8094 27.7473 17.281 27.6576C18.0355 27.5142 18.7341 27.5483 19.377 27.76C20.0198 27.9717 20.5722 28.3715 21.0342 28.9596L19.7703 29.9572C19.5178 29.6143 19.2031 29.3728 18.8264 29.2327C18.4481 29.0848 18.031 29.0541 17.5752 29.1408C17.1272 29.226 16.7986 29.3821 16.5893 29.6092C16.38 29.8362 16.2978 30.0677 16.3426 30.3034C16.3889 30.5471 16.5427 30.7133 16.8039 30.8021C17.0729 30.8894 17.3971 30.9458 17.7766 30.9714C18.156 30.997 18.5638 31.0213 18.9997 31.0442C19.4357 31.0672 19.8524 31.1387 20.2497 31.2585C20.6456 31.3706 20.9913 31.5614 21.2869 31.8309C21.5888 32.0911 21.7891 32.4806 21.8877 32.9993C21.9639 33.4001 21.954 33.7766 21.8581 34.1287C21.77 34.4793 21.603 34.8001 21.357 35.0912C21.1096 35.3744 20.7927 35.6138 20.4064 35.8094C20.0295 36.0113 19.5856 36.1608 19.0748 36.258ZM25.1845 31.5541L27.2357 31.1642L25.6251 28.2823L25.1845 31.5541ZM26.1513 26.1668L30.7027 33.852L28.9344 34.1881L28.0088 32.5319L24.9672 33.1101L24.714 34.9905L22.9928 35.3177L24.4066 26.4985L26.1513 26.1668ZM30.2707 25.3836L31.9447 25.0654L33.2222 31.785L36.9946 31.0679L37.286 32.6004L31.8395 33.6358L30.2707 25.3836ZM37.0631 24.0923L42.5096 23.0569L42.8009 24.5895L39.0285 25.3067L39.3467 26.9807L42.6476 26.3531L42.9389 27.8857L39.6381 28.5132L40.0146 30.4938L43.787 29.7766L44.0784 31.3091L38.6319 32.3445L37.0631 24.0923Z" fill="white"/>
</svg>
