<svg width="25" height="25" viewBox="0 0 25 25" fill="none" xmlns="http://www.w3.org/2000/svg">
<path fill-rule="evenodd" clip-rule="evenodd" d="M12.4373 2.78009C10.4846 2.78009 8.90161 4.36308 8.90161 6.3158C8.90161 8.26853 10.4846 9.85152 12.4373 9.85152C14.39 9.85152 15.973 8.26853 15.973 6.3158C15.973 4.36308 14.39 2.78009 12.4373 2.78009ZM7.40161 6.3158C7.40161 3.53466 9.65618 1.28009 12.4373 1.28009C15.2185 1.28009 17.473 3.53466 17.473 6.3158C17.473 9.09695 15.2185 11.3515 12.4373 11.3515C9.65618 11.3515 7.40161 9.09695 7.40161 6.3158Z" fill="#818181"/>
<path fill-rule="evenodd" clip-rule="evenodd" d="M4.74732 16.1961C6.30456 14.5324 8.83718 13.2801 12.7235 13.2801C16.6097 13.2801 19.1424 14.5324 20.6996 16.1961C22.2372 17.8389 22.7592 19.8148 22.7592 21.1729C22.7592 21.5872 22.4234 21.9229 22.0092 21.9229H3.43774C3.02353 21.9229 2.68774 21.5872 2.68774 21.1729C2.68774 19.8148 3.2097 17.8389 4.74732 16.1961ZM4.25153 20.4229H21.1954C21.0393 19.4602 20.5777 18.261 19.6045 17.2212C18.376 15.9087 16.2658 14.7801 12.7235 14.7801C9.18116 14.7801 7.07092 15.9087 5.84245 17.2212C4.86917 18.261 4.4076 19.4602 4.25153 20.4229Z" fill="#818181"/>
</svg>
