<svg width="46" height="46" viewBox="0 0 46 46" fill="none" xmlns="http://www.w3.org/2000/svg">
<circle cx="23" cy="23" r="23" fill="white"/>
<path d="M23.4289 12C17.6935 12 13.0245 16.665 13.0224 22.4004C13.0213 24.2337 13.5015 26.0235 14.4119 27.6006L13 32.8333L18.4504 31.5455C19.9702 32.3747 21.6811 32.8099 23.4228 32.811H23.4268C29.1612 32.811 33.8282 28.1449 33.8313 22.4106C33.8334 19.6304 32.7523 17.0164 30.7877 15.0497C28.8231 13.0841 26.2122 12.001 23.4289 12ZM23.4268 14.0833C25.6518 14.0844 27.7428 14.9519 29.3147 16.5227C30.8866 18.0956 31.75 20.1856 31.748 22.4085C31.7459 26.996 28.0144 30.7276 23.4248 30.7276C22.0363 30.7266 20.6608 30.3779 19.4494 29.7165L18.7475 29.334L17.9723 29.5171L15.9215 30.0013L16.422 28.1418L16.6479 27.3076L16.2166 26.5589C15.4895 25.3006 15.1047 23.8618 15.1057 22.4004C15.1078 17.815 18.8404 14.0833 23.4268 14.0833ZM19.7464 17.599C19.5725 17.599 19.2912 17.6641 19.0527 17.9245C18.8141 18.1839 18.1412 18.8121 18.1412 20.0912C18.1412 21.3704 19.073 22.6069 19.2032 22.7808C19.3324 22.9538 21.0018 25.6617 23.6445 26.7034C25.8404 27.569 26.2863 27.3982 26.7634 27.3544C27.2405 27.3117 28.3025 26.7268 28.5192 26.1195C28.7359 25.5122 28.7364 24.9898 28.6718 24.8825C28.6072 24.7742 28.4338 24.7096 28.1733 24.5793C27.914 24.4491 26.6358 23.8215 26.3972 23.735C26.1587 23.6486 25.9842 23.6048 25.8113 23.8652C25.6384 24.1257 25.1414 24.7096 24.9893 24.8825C24.8373 25.0564 24.6862 25.0798 24.4258 24.9496C24.1654 24.8184 23.3281 24.5431 22.3343 23.6577C21.5614 22.9692 21.0399 22.1196 20.8878 21.8592C20.7367 21.5998 20.8735 21.4574 21.0037 21.3282C21.1204 21.2115 21.2621 21.0246 21.3923 20.8725C21.5215 20.7204 21.5663 20.612 21.6527 20.4391C21.7392 20.2662 21.695 20.1136 21.6304 19.9834C21.5658 19.8532 21.06 18.5693 20.8288 18.0547C20.634 17.6224 20.4283 17.6124 20.2428 17.6051C20.0918 17.5988 19.9193 17.599 19.7464 17.599Z" fill="#669374"/>
</svg>
